<?xml version="1.0" encoding="UTF-8"?>
<svg width="23px" height="14px" viewBox="0 0 23 14" version="1.1" xmlns="http://www.w3.org/2000/svg" xmlns:xlink="http://www.w3.org/1999/xlink">
    <!-- Generator: Sketch 47 (45396) - http://www.bohemiancoding.com/sketch -->
    <title>Combined Shape</title>
    <desc>Created with Sketch.</desc>
    <defs></defs>
    <g id="Symbols" stroke="none" stroke-width="1" fill="none" fill-rule="evenodd">
        <g id="Hub/Icon/Guaranteed-5p-Flag" transform="translate(-14.000000, -3.000000)" fill="#3498DB">
            <path d="M14.320674,16.6702436 L14.320674,17 L36.320674,17 L33.4041459,10.1162754 L36.320674,3 L14.320674,3 L14.320674,3.32950863 C14.453799,3.37483054 14.582525,3.44069509 14.7025455,3.528 C15.1621818,3.86181818 15.3621818,4.41309091 15.2778182,4.93745455 L15.2843636,4.93236364 C15.1294545,5.91345455 15.4712727,6.38472727 16.4530909,6.54036364 L16.4458182,6.54545455 C16.9709091,6.62690909 17.4334545,6.98836364 17.6087273,7.528 C17.784,8.06836364 17.6218182,8.632 17.2450909,9.00654545 L17.2538182,9.00654545 C16.5512727,9.70909091 16.5512727,10.2916364 17.2538182,10.9941818 L17.2538182,10.9934545 L17.2443636,10.9934545 C17.6218182,11.368 17.7832727,11.9323636 17.608,12.472 C17.4327273,13.0123636 16.9701818,13.3730909 16.4450909,13.4545455 L16.4523636,13.4596364 C15.4705455,13.6152727 15.128,14.0858182 15.2836364,15.0676364 L15.2770909,15.0625455 C15.3614545,15.5869091 15.1607273,16.1381818 14.7018182,16.472 C14.5820163,16.5591459 14.4535406,16.6249295 14.320674,16.6702436 Z" id="Combined-Shape"></path>
        </g>
    </g>
</svg>