<?xml version="1.0" encoding="UTF-8"?>
<svg width="25px" height="26px" viewBox="0 0 25 26" version="1.1" xmlns="http://www.w3.org/2000/svg" xmlns:xlink="http://www.w3.org/1999/xlink">
    <!-- Generator: Sketch 49.3 (51167) - http://www.bohemiancoding.com/sketch -->
    <title>Tracking/Icon/LoadType/Final Mile Color</title>
    <desc>Created with Sketch.</desc>
    <defs></defs>
    <g id="Tracking/Icon/LoadType/Final-Mile-Color" stroke="none" stroke-width="1" fill="none" fill-rule="evenodd">
        <g id="Final-Mile-Icon---more-purple" transform="translate(3.000000, 2.000000)">
            <path d="M3.12462568,14 L1.18859053,14 L1.18859053,4.71972656 L6.50792647,4.71972656 L6.50792647,6.33203125 L3.12462568,6.33203125 L3.12462568,8.72509766 L6.27306318,8.72509766 L6.27306318,10.3310547 L3.12462568,10.3310547 L3.12462568,14 Z M12.0358887,14 L9.80151367,6.71923828 L9.74438477,6.71923828 C9.82478881,8.20036548 9.86499023,9.18847409 9.86499023,9.68359375 L9.86499023,14 L8.10668945,14 L8.10668945,4.71972656 L10.7854004,4.71972656 L12.9816895,11.8164062 L13.0197754,11.8164062 L15.3493652,4.71972656 L18.0280762,4.71972656 L18.0280762,14 L16.1936035,14 L16.1936035,9.60742188 C16.1936035,9.40006407 16.1967773,9.16097141 16.203125,8.89013672 C16.2094727,8.61930203 16.2380369,7.89990818 16.2888184,6.73193359 L16.2316895,6.73193359 L13.838623,14 L12.0358887,14 Z" id="FM" fill="#9B59B6"></path>
            <path d="M2.5,17.5 L10.5,17.5" id="Line" stroke="#9B59B6" stroke-linecap="square"></path>
            <path d="M10.5,17.5 L16.5,17.5" id="Line" stroke="#9B59B6" stroke-linecap="square"></path>
            <circle id="Oval" stroke="#9B59B6" fill="#FFFFFF" cx="2.5" cy="17.5" r="1.5"></circle>
            <circle id="Oval" stroke="#9B59B6" fill="#D293EC" cx="11" cy="17.5" r="1.5"></circle>
            <circle id="Oval" stroke="#9B59B6" fill="#D293EC" cx="16.5" cy="17.5" r="1.5"></circle>
        </g>
    </g>
</svg>
