<?xml version="1.0" encoding="UTF-8"?>
<svg width="25px" height="22px" viewBox="0 0 25 22" version="1.1" xmlns="http://www.w3.org/2000/svg" xmlns:xlink="http://www.w3.org/1999/xlink">
    <!-- Generator: sketchtool 49 (51002) - http://www.bohemiancoding.com/sketch -->
    <title>E180A2D6-8899-45BB-99A3-C6219DB18CB1</title>
    <desc>Created with sketchtool.</desc>
    <defs></defs>
    <g id="Tracking-V4" stroke="none" stroke-width="1" fill="none" fill-rule="evenodd">
        <g id="Tracking-Assets" transform="translate(-298.000000, -81.000000)">
            <g id="Add-Pro-Number-Entry-Group" transform="translate(279.000000, 43.000000)">
                <g id="Add-PRO-Number-title-and-icon" transform="translate(0.000000, 25.000000)">
                    <g id="Hub/Icon/Add-Pro-Number" transform="translate(17.000000, 9.000000)">
                        <g id="Pro-Number" transform="translate(2.900000, 4.350000)">
                            <path d="M23.1411077,4.62852747 L18.5123253,4.62852747 L19.3284044,0 L16.9370198,0 L16.1211956,4.62878242 L9.10102857,4.62878242 L9.91710769,0.000254945055 L7.52546813,0.000254945055 L6.70938901,4.62878242 L2.08111648,4.62878242 L1.65943736,7.02042198 L6.28770989,7.02042198 L5.05020659,14.0400791 L0.421679121,14.0400791 L0,16.4319736 L4.62852747,16.4319736 L3.81244835,21.0605011 L6.20383297,21.0605011 L7.01991209,16.4319736 L14.0398242,16.4319736 L13.2237451,21.0605011 L15.6153846,21.0605011 L16.4314637,16.4319736 L21.0599912,16.4319736 L21.4816703,14.0400791 L16.8531429,14.0400791 L18.0906462,7.02042198 L22.7194286,7.02042198 L23.1411077,4.62852747 Z M14.4615033,14.0400791 L7.44159121,14.0400791 L8.67934945,7.02042198 L15.6992615,7.02042198 L14.4615033,14.0400791 Z" id="Shape" fill="#BCBCBC" fill-rule="nonzero"></path>
                            <path d="M18.5123253,4.62852747 L6.70938901,4.62878242 L4.62852747,16.4319736 L3.81244835,21.0605011 L6.20383297,21.0605011 L7.01991209,16.4319736 L16.4314637,16.4319736 L18.5123253,4.62852747 Z M14.4615033,14.0400791 L7.44159121,14.0400791 L8.67934945,7.02042198 L15.6992615,7.02042198 L14.4615033,14.0400791 Z" id="Shape" fill="#828282" fill-rule="nonzero"></path>
                        </g>
                    </g>
                </g>
            </g>
        </g>
    </g>
</svg>