<?xml version="1.0" encoding="UTF-8"?>
<svg width="24px" height="24px" viewBox="0 0 24 24" version="1.1" xmlns="http://www.w3.org/2000/svg" xmlns:xlink="http://www.w3.org/1999/xlink">
    <!-- Generator: Sketch 52.6 (67491) - http://www.bohemiancoding.com/sketch -->
    <title>book-carrier-24px</title>
    <desc>Created with Sketch.</desc>
    <defs>
        <polygon id="path-1" points="0 0 24 0 24 24 0 24"></polygon>
    </defs>
    <g id="book-carrier-24px" stroke="none" stroke-width="1" fill="none" fill-rule="evenodd">
        <polygon id="Bounding-Box" points="0 0 24 0 24 24 0 24"></polygon>
        <g>
            <mask id="mask-2" fill="white">
                <use xlink:href="#path-1"></use>
            </mask>
            <g id="a"></g>
            <path d="M20,7 L16,7 L16,5 C16,4.45 15.78,3.95 15.41,3.59 C15.05,3.22 14.55,3 14,3 L10,3 C8.9,3 8,3.9 8,5 L8,7 L4,7 C2.9,7 2,7.9 2,9 L2,20 C2,21.1 2.9,22 4,22 L20,22 C21.1,22 22,21.1 22,20 L22,9 C22,7.9 21.1,7 20,7 Z M10,5 L14,5 L14,7 L10,7 L10,5 Z M9.09045,18 L9.09045,10.65 L12.50295,10.65 C13.34295,10.65 14.00445,10.881 14.42445,11.301 C14.76045,11.637 14.92845,12.0465 14.92845,12.5505 L14.92845,12.5715 C14.92845,13.401 14.48745,13.863 13.96245,14.157 C14.81295,14.4825 15.33795,14.976 15.33795,15.963 L15.33795,15.984 C15.33795,17.328 14.24595,18 12.58695,18 L9.09045,18 Z M10.66545,13.6215 L12.15645,13.6215 C12.87045,13.6215 13.32195,13.3905 13.32195,12.8445 L13.32195,12.8235 C13.32195,12.3405 12.94395,12.0675 12.26145,12.0675 L10.66545,12.0675 L10.66545,13.6215 Z M10.66545,16.5825 L12.58695,16.5825 C13.30095,16.5825 13.73145,16.3305 13.73145,15.7845 L13.73145,15.7635 C13.73145,15.27 13.36395,14.9655 12.53445,14.9655 L10.66545,14.9655 L10.66545,16.5825 Z" id="Shape" fill="#010101" fill-rule="nonzero" mask="url(#mask-2)"></path>
        </g>
    </g>
</svg>