<?xml version="1.0" standalone="no"?>
<!DOCTYPE svg PUBLIC "-//W3C//DTD SVG 20010904//EN"
 "http://www.w3.org/TR/2001/REC-SVG-20010904/DTD/svg10.dtd">
<svg version="1.0" xmlns="http://www.w3.org/2000/svg"
 width="1024.000000pt" height="1024.000000pt" viewBox="0 0 1024.000000 1024.000000"
 preserveAspectRatio="xMidYMid meet">
<metadata>
Created by potrace 1.16, written by Peter Selinger 2001-2019
</metadata>
<g transform="translate(0.000000,1024.000000) scale(0.100000,-0.100000)"
fill="#000000" stroke="none">
<path d="M2928 9181 c-72 -23 -117 -51 -162 -101 -44 -49 -94 -146 -101 -197
-3 -21 -2 -187 2 -368 l8 -330 33 -68 c25 -49 48 -79 90 -113 91 -75 130 -89
247 -89 89 0 106 3 150 26 65 35 145 120 184 197 l31 61 0 333 c0 411 -6 441
-108 551 -96 102 -241 140 -374 98z m192 -296 l35 -35 3 -306 3 -306 -39 -39
c-33 -32 -47 -39 -78 -39 -48 0 -98 29 -119 70 -14 26 -15 71 -13 324 3 278 4
295 23 316 62 70 125 75 185 15z"/>
<path d="M6890 9186 c-118 -32 -193 -94 -247 -204 l-38 -76 2 -349 c1 -335 2
-352 24 -409 30 -82 102 -158 187 -200 60 -30 75 -33 157 -33 81 0 95 3 143
29 77 43 146 116 183 194 l33 67 0 350 1 350 -32 68 c-21 44 -53 89 -91 126
-49 49 -70 63 -126 80 -76 24 -130 26 -196 7z m161 -305 l39 -39 0 -292 c0
-280 -1 -294 -21 -327 -41 -65 -115 -82 -169 -37 -55 47 -56 52 -50 372 l5
294 37 34 c30 27 46 34 79 34 35 0 48 -6 80 -39z"/>
<path d="M2295 8789 c-204 -26 -457 -154 -613 -311 -153 -155 -209 -261 -294
-553 l-23 -80 -3 -2115 c-2 -1428 0 -2145 8 -2207 31 -277 168 -563 360 -753
146 -146 319 -247 525 -310 206 -63 35 -59 2780 -63 1381 -2 2555 0 2610 4
244 20 542 146 736 312 188 160 353 468 388 720 15 105 15 4281 1 4382 -15
104 -39 189 -80 292 -63 157 -122 245 -250 373 -126 126 -228 195 -372 250
-140 54 -182 62 -375 67 l-183 6 0 -142 0 -141 30 0 c27 0 77 -45 373 -328
188 -181 395 -378 460 -438 83 -77 117 -115 117 -131 0 -29 -8 -29 -47 0 -33
24 -376 342 -483 447 -417 410 -442 434 -451 419 -5 -8 -9 -32 -9 -54 0 -39 6
-46 213 -250 117 -116 276 -269 352 -340 77 -71 177 -164 222 -207 l83 -78
-38 0 c-33 0 -48 10 -142 97 -58 54 -177 168 -265 253 -302 294 -395 380 -410
380 -11 0 -15 -11 -15 -39 0 -32 8 -48 53 -97 85 -95 109 -119 162 -164 28
-24 136 -127 242 -230 l191 -188 -33 -4 c-32 -4 -46 9 -308 263 -151 147 -284
272 -295 278 -23 12 -29 7 -42 -39 -9 -32 7 -49 383 -410 48 -46 87 -87 87
-92 0 -4 -14 -8 -32 -8 -27 0 -57 25 -240 207 -114 114 -215 211 -223 215 -20
12 -49 -34 -40 -63 4 -13 82 -96 172 -185 158 -156 164 -163 138 -170 -30 -7
-25 -11 -236 194 -64 61 -123 112 -132 112 -21 0 -57 -35 -57 -54 0 -8 57 -69
128 -135 l127 -121 -36 0 c-31 0 -46 11 -125 86 -166 160 -164 158 -205 125
l-23 -18 87 -90 c48 -49 84 -93 80 -96 -19 -20 -54 0 -134 78 -71 70 -92 85
-118 85 -17 0 -31 -2 -31 -5 0 -2 14 -34 32 -69 18 -36 28 -69 24 -73 -5 -4
-39 25 -76 65 -52 57 -75 74 -102 79 -20 3 -38 1 -42 -5 -3 -5 14 -40 39 -78
30 -47 41 -72 34 -80 -7 -8 -42 20 -122 100 -62 61 -134 129 -162 150 -83 66
-114 98 -172 174 -30 40 -156 174 -279 297 -123 124 -224 228 -224 230 0 3 17
5 37 5 34 0 48 -11 198 -161 153 -152 182 -178 196 -179 7 0 -11 123 -20 130
-3 3 -51 52 -106 108 l-100 102 50 -6 c40 -6 59 -15 97 -50 78 -72 78 -72 78
145 l0 188 -1418 2 -1417 2 0 -171 0 -171 76 -72 c42 -40 145 -135 229 -212
182 -167 421 -396 545 -524 l90 -92 -36 3 c-38 3 -95 55 -599 543 -158 154
-273 255 -289 255 -7 0 -11 -20 -10 -52 0 -53 1 -53 61 -100 81 -63 668 -628
668 -643 0 -3 -12 -5 -26 -5 -29 0 -66 33 -294 261 -199 199 -377 359 -401
359 -10 0 -23 -10 -30 -22 -10 -19 -2 -30 96 -122 119 -112 397 -393 440 -443
l27 -33 -29 0 c-30 1 -35 5 -359 320 -171 167 -201 191 -215 169 -17 -27 -9
-67 25 -110 31 -41 202 -203 330 -312 31 -27 56 -52 56 -58 0 -5 -13 -9 -28
-9 -21 0 -43 14 -83 53 -127 123 -281 270 -315 299 -35 31 -37 31 -50 13 -8
-10 -14 -27 -14 -38 0 -10 65 -85 152 -173 150 -152 151 -154 117 -154 -31 0
-49 15 -183 149 l-150 150 -28 -20 c-15 -11 -28 -28 -28 -37 0 -9 51 -66 113
-127 l112 -110 -33 -3 c-30 -3 -42 5 -105 65 -39 37 -84 83 -101 101 -23 25
-38 32 -67 32 -21 0 -42 -7 -50 -16 -11 -14 -2 -26 68 -95 l80 -79 -36 0 c-32
0 -45 9 -111 75 -70 70 -77 75 -117 75 -25 0 -43 -5 -43 -11 0 -6 23 -39 50
-74 28 -35 50 -65 50 -68 0 -3 -8 -8 -17 -11 -12 -5 -42 19 -112 88 -78 78
-106 99 -151 115 -30 10 -63 22 -74 26 -16 7 -17 5 -8 -12 6 -11 47 -60 92
-108 44 -49 80 -92 80 -97 0 -4 -11 -8 -24 -8 -17 0 -128 104 -447 421 -422
419 -438 438 -380 439 7 0 105 -90 218 -200 112 -110 212 -204 223 -210 17 -9
16 -3 -8 70 -34 99 -74 152 -215 276 -59 52 -106 101 -104 107 2 7 14 14 27
15 17 3 39 -13 89 -60 65 -64 143 -128 155 -128 3 0 6 22 6 48 0 44 -4 51 -51
97 -28 28 -55 58 -61 68 -9 18 -5 19 51 15 l61 -3 0 143 0 142 -62 -1 c-35 -1
-94 -5 -133 -10z m1959 -561 c165 -161 387 -377 491 -480 l190 -188 -47 0
c-27 0 -48 3 -48 8 0 4 -211 214 -470 466 -258 252 -470 465 -470 472 0 8 11
14 26 14 21 0 89 -61 328 -292z m1 204 c531 -522 871 -858 873 -864 2 -5 -10
-8 -28 -8 -36 0 -114 72 -680 629 l-335 330 40 1 c37 0 47 -6 130 -88z m609
-392 l474 -465 -40 -3 -40 -3 -336 334 c-186 183 -399 394 -475 468 -125 121
-136 135 -115 140 13 3 31 3 40 0 10 -4 231 -216 492 -471z m146 62 c234 -230
450 -441 480 -470 45 -43 52 -54 40 -62 -8 -5 -23 -10 -32 -10 -9 0 -99 80
-200 177 -336 324 -778 764 -778 774 0 5 15 9 33 9 29 0 72 -39 457 -418z
m266 -54 c263 -260 481 -476 482 -480 2 -5 -12 -8 -32 -8 -32 0 -55 20 -309
268 -150 147 -369 359 -485 472 -117 113 -212 208 -212 213 0 4 17 7 38 7 37
0 54 -15 518 -472z m-190 391 c44 -45 140 -141 214 -213 436 -425 655 -640
658 -647 2 -3 -13 -9 -33 -11 -36 -4 -41 1 -512 466 -500 494 -486 479 -417
485 6 1 47 -36 90 -80z m196 14 c35 -37 158 -159 273 -272 301 -295 615 -609
615 -615 0 -4 -15 -6 -34 -6 -31 0 -64 29 -392 352 -554 543 -600 591 -580
598 42 14 57 7 118 -57z m355 -145 c120 -117 336 -330 480 -475 254 -255 261
-263 228 -263 -27 0 -46 11 -87 47 -79 70 -908 888 -908 896 0 4 15 7 34 7 31
0 55 -20 253 -212z m13 201 c0 -10 756 -769 862 -865 32 -29 59 -58 60 -65 5
-21 -55 -28 -67 -8 -5 9 -219 221 -475 472 -256 251 -466 461 -468 467 -2 6
15 10 42 10 26 0 46 -5 46 -11z m223 -16 c5 -8 63 -67 130 -131 145 -139 148
-143 438 -437 125 -127 255 -257 290 -290 l64 -60 -33 -3 c-27 -3 -42 6 -103
60 -87 77 -889 872 -889 881 0 12 95 -6 103 -20z m1950 -1 c13 -26 503 -507
565 -554 29 -23 59 -53 66 -67 20 -39 28 -81 16 -81 -5 0 -10 4 -10 9 0 4 -39
41 -87 80 -98 81 -643 618 -643 633 0 17 84 -1 93 -20z m-4061 11 c2 -5 84
-84 183 -177 159 -150 698 -679 749 -735 19 -21 19 -21 -12 -21 -28 0 -68 35
-329 288 -164 159 -327 315 -363 347 -36 32 -122 114 -192 182 l-126 123 43 0
c24 0 45 -3 47 -7z m4286 -72 c53 -27 230 -184 275 -244 44 -58 71 -107 60
-107 -11 1 -390 369 -380 370 4 0 25 -9 45 -19z m-5684 -468 c210 -208 382
-381 384 -385 2 -3 -10 -9 -25 -12 -26 -6 -54 20 -400 365 -205 204 -373 374
-373 378 0 8 21 31 29 31 2 0 176 -170 385 -377z m-186 -16 c163 -161 317
-312 342 -335 l45 -41 -42 -1 c-40 0 -48 5 -177 128 -74 70 -218 214 -321 320
-157 161 -185 195 -175 207 7 8 17 15 22 15 5 0 143 -132 306 -293z m-97 -106
l282 -280 -39 -3 c-38 -3 -41 0 -254 212 -119 118 -238 234 -264 257 -41 36
-47 47 -42 68 4 14 13 25 21 25 8 0 142 -126 296 -279z m-182 -24 c91 -90 187
-182 213 -205 l48 -42 -43 0 c-41 0 -47 5 -235 186 -185 179 -192 187 -176
205 9 11 19 19 22 19 3 0 80 -73 171 -163z m-135 -75 c45 -43 106 -102 136
-130 l55 -52 -38 0 c-34 0 -49 10 -142 93 -56 50 -105 97 -108 103 -6 12 3 64
11 64 3 0 42 -35 86 -78z m5608 -472 l1108 0 -3 -1912 c-3 -2163 6 -1955 -87
-2143 -120 -246 -293 -389 -585 -487 l-100 -33 -2600 1 -2600 0 -105 28 c-111
29 -257 93 -335 146 -66 45 -181 155 -225 215 -85 114 -141 239 -165 368 -13
69 -15 326 -15 1948 l0 1869 2093 3 c1150 2 2186 2 2301 0 115 -2 708 -3 1318
-3z"/>
<path d="M2543 7029 c-40 -12 -79 -58 -94 -111 -7 -27 -10 -128 -7 -287 3
-224 5 -249 23 -280 11 -19 33 -43 48 -55 27 -20 42 -21 305 -24 315 -3 328 0
369 73 22 39 23 49 23 308 0 298 -3 317 -64 360 -30 21 -39 22 -301 24 -148 1
-284 -3 -302 -8z m497 -370 l0 -220 -209 3 c-115 2 -212 5 -214 8 -3 3 -7 98
-9 212 l-3 207 60 4 c33 2 131 4 218 5 l157 2 0 -221z"/>
<path d="M2806 6781 c-9 -10 -20 -31 -24 -45 -11 -39 3 -203 18 -221 19 -22
52 -15 67 15 16 31 17 223 3 251 -14 24 -42 24 -64 0z"/>
<path d="M3586 7030 c-15 -5 -37 -17 -48 -27 -46 -41 -48 -57 -48 -345 0 -300
3 -318 63 -362 27 -20 40 -21 310 -20 197 0 289 4 304 12 12 7 35 29 50 49
l28 36 4 261 c2 167 -1 273 -8 296 -6 19 -27 51 -46 70 l-36 35 -272 2 c-150
1 -285 -2 -301 -7z m492 -367 l2 -211 -76 -7 c-42 -4 -135 -4 -208 1 l-131 9
-5 200 c-3 110 -4 202 -2 205 3 4 355 18 402 15 13 0 15 -32 18 -212z"/>
<path d="M3865 6794 c-5 -1 -22 -5 -36 -8 -34 -7 -58 -58 -39 -81 7 -8 27 -15
45 -15 74 0 89 -32 25 -51 -28 -9 -42 -19 -46 -35 -16 -63 47 -117 88 -76 17
16 21 36 24 130 4 112 1 121 -36 134 -8 3 -19 4 -25 2z"/>
<path d="M4608 7016 c-17 -12 -41 -34 -52 -49 -20 -27 -21 -43 -24 -275 -4
-307 -2 -326 49 -374 l40 -38 289 0 289 0 35 31 c20 17 40 47 46 67 5 21 10
150 10 293 0 250 -1 257 -23 290 -12 18 -37 44 -56 56 -32 22 -39 22 -303 21
-256 -1 -271 -2 -300 -22z m465 -171 c12 -11 15 -50 16 -189 0 -149 -2 -176
-16 -187 -11 -10 -50 -14 -137 -14 -207 0 -211 4 -211 211 0 194 -1 192 202
193 102 1 135 -2 146 -14z"/>
<path d="M5685 7031 c-32 -5 -81 -47 -99 -84 -23 -51 -24 -571 0 -605 8 -12
19 -22 23 -22 5 0 20 19 35 43 15 23 56 64 90 91 62 49 63 50 54 84 -6 21 -6
44 0 60 5 15 7 61 4 103 -5 82 10 129 47 149 27 14 214 13 246 -2 21 -10 25
-18 25 -58 0 -25 -6 -52 -12 -59 -9 -8 1 -7 27 4 95 40 112 46 155 53 l45 8 0
76 c0 72 -2 79 -30 108 -52 55 -51 55 -330 55 -143 0 -269 -2 -280 -4z"/>
<path d="M6945 7030 c-203 -4 -235 -7 -260 -24 -47 -29 -65 -57 -65 -102 l0
-41 167 -6 c91 -4 217 -7 280 -7 l113 0 0 -29 c0 -37 11 -45 90 -66 36 -10 75
-24 88 -32 l22 -13 0 116 c0 111 -1 119 -26 152 -33 42 -79 63 -136 60 -24 -1
-147 -5 -273 -8z"/>
<path d="M6602 6619 c-87 -13 -279 -63 -351 -93 -108 -44 -218 -117 -338 -226
-124 -112 -162 -155 -232 -259 -155 -229 -216 -562 -161 -871 34 -186 81 -299
191 -460 92 -135 158 -201 292 -291 269 -183 547 -254 886 -229 202 16 341 60
522 167 111 65 297 246 372 363 139 216 194 387 204 632 12 287 -25 430 -179
695 -84 147 -215 280 -382 390 -220 145 -559 220 -824 182z m362 -210 c176
-28 372 -130 529 -278 39 -36 77 -98 77 -125 0 -27 -27 -24 -44 6 -30 51 -154
121 -261 147 -27 7 -76 28 -110 46 -119 67 -325 104 -476 85 -348 -42 -639
-238 -764 -514 -72 -157 -96 -403 -56 -571 57 -238 242 -459 485 -580 145 -72
222 -88 411 -89 146 0 168 2 248 27 341 105 574 358 643 698 21 105 13 279
-16 365 -25 73 -25 130 0 172 26 42 41 40 73 -5 108 -157 127 -443 47 -685
-56 -166 -128 -286 -249 -411 -120 -124 -257 -208 -436 -268 -99 -33 -101 -33
-295 -33 -170 -1 -206 2 -278 21 -107 29 -180 59 -269 111 -206 121 -369 300
-443 488 -59 148 -74 232 -74 404 1 136 4 167 28 255 45 167 108 281 229 417
150 170 364 282 617 323 92 16 261 13 384 -6z m386 -449 c16 -11 34 -36 40
-56 22 -65 -2 -102 -169 -261 -82 -79 -191 -192 -243 -252 -246 -290 -302
-341 -369 -341 -47 0 -103 42 -254 193 -60 61 -136 133 -168 161 -66 57 -87
90 -87 136 0 67 42 110 123 124 53 10 88 -10 206 -117 129 -116 179 -157 195
-157 11 0 180 167 342 338 165 175 220 231 239 241 34 18 114 13 145 -9z"/>
<path d="M2524 6061 c-17 -10 -41 -35 -53 -55 -22 -34 -22 -42 -19 -304 3
-297 4 -302 71 -342 30 -18 52 -20 303 -20 389 0 372 -17 376 377 3 252 2 262
-18 290 -11 15 -36 38 -54 51 -32 21 -39 22 -304 22 -248 0 -274 -2 -302 -19z
m458 -178 c10 -9 20 -24 23 -34 7 -23 -22 -91 -63 -148 -17 -23 -38 -66 -48
-94 -23 -71 -29 -77 -86 -77 -109 0 -116 41 -28 158 33 43 60 84 60 89 0 21
-55 22 -97 1 -40 -20 -43 -20 -67 -4 -38 24 -35 66 7 103 l33 29 125 -4 c92
-3 128 -8 141 -19z"/>
<path d="M3563 6060 c-18 -10 -41 -37 -53 -59 -19 -37 -20 -58 -20 -297 0
-384 -20 -364 365 -364 303 0 321 4 360 70 18 32 20 55 23 294 4 285 2 297
-55 346 l-34 30 -277 0 c-257 0 -279 -1 -309 -20z m447 -172 c27 -29 25 -65
-5 -134 -14 -31 -25 -75 -25 -98 0 -22 -5 -58 -10 -78 -13 -46 -54 -62 -129
-52 -69 9 -101 35 -101 81 0 30 10 45 67 105 54 55 64 71 53 78 -21 13 -41 12
-70 -5 -34 -20 -57 -18 -80 5 -16 16 -18 24 -9 50 21 59 48 70 175 70 104 0
115 -2 134 -22z"/>
<path d="M4606 6061 c-16 -11 -38 -34 -50 -53 -20 -31 -21 -46 -21 -298 0
-295 3 -311 68 -350 30 -19 52 -20 305 -20 298 0 318 3 345 58 17 32 31 234
32 442 0 136 -1 147 -23 178 -44 60 -53 62 -354 62 -252 0 -275 -2 -302 -19z
m428 -180 c25 -24 26 -28 26 -145 0 -178 -25 -216 -142 -216 -74 0 -134 24
-153 61 -40 77 11 132 69 74 17 -17 36 -25 61 -25 30 0 35 3 35 24 0 22 -7 26
-57 36 -74 15 -109 36 -128 76 -19 41 -19 49 2 85 28 47 66 60 170 57 81 -3
94 -6 117 -27z"/>
<path d="M2532 5133 c-18 -9 -44 -35 -57 -58 -25 -41 -25 -44 -25 -297 0 -249
1 -256 23 -289 40 -59 44 -60 357 -57 395 4 370 -20 370 356 l0 263 -39 42
-40 42 -98 6 c-54 4 -179 7 -278 8 -147 0 -186 -2 -213 -16z m442 -186 c29
-34 16 -83 -46 -173 -29 -44 -62 -100 -71 -126 -16 -41 -23 -48 -52 -54 -105
-19 -110 55 -14 202 43 65 46 74 28 74 -11 0 -36 -7 -56 -15 -49 -21 -89 -19
-113 5 -25 25 -25 28 -1 64 35 52 54 57 186 51 108 -5 122 -8 139 -28z"/>
<path d="M3553 5122 c-11 -9 -31 -33 -42 -52 -20 -33 -21 -49 -21 -295 0 -243
1 -262 20 -293 35 -56 53 -59 367 -53 l282 6 30 29 c17 17 36 46 41 65 5 20
10 141 10 269 0 255 -2 267 -60 316 l-32 26 -286 0 c-257 0 -289 -2 -309 -18z
m422 -174 c65 -60 63 -130 -4 -191 -29 -26 -51 -37 -90 -42 -74 -10 -78 -28
-5 -22 33 3 71 8 85 12 37 10 63 -18 55 -59 -10 -49 -28 -56 -153 -56 -108 0
-115 1 -138 25 -14 13 -25 35 -25 47 0 31 111 141 163 163 49 20 48 49 -3 53
-30 2 -37 -2 -52 -28 -19 -34 -36 -37 -77 -15 -37 19 -45 42 -25 74 36 59 62
71 152 71 79 0 84 -1 117 -32z"/>
<path d="M4605 5121 c-74 -44 -80 -83 -70 -395 7 -221 8 -228 32 -256 13 -16
39 -33 56 -37 18 -4 157 -6 309 -3 l276 5 27 25 c15 14 31 35 36 47 4 12 9
135 10 272 2 243 1 250 -21 286 -45 74 -52 75 -355 75 -245 0 -273 -2 -300
-19z m389 -155 c71 -30 97 -107 57 -173 -11 -17 -46 -49 -78 -70 l-58 -38 65
-3 c35 -2 70 -8 77 -14 17 -14 17 -53 -1 -67 -15 -13 -226 -19 -262 -7 -29 9
-46 49 -34 80 8 23 165 166 181 166 16 0 10 28 -7 34 -35 13 -64 6 -74 -18
-18 -48 -120 -38 -120 12 0 22 56 91 84 102 33 14 133 11 170 -4z"/>
<path d="M5755 4305 c4 -16 7 -34 8 -39 1 -6 -25 -19 -58 -31 -138 -47 -135
-37 -135 -375 0 -294 4 -318 55 -358 27 -21 36 -22 307 -22 401 0 379 -16 391
299 4 119 5 226 2 237 -4 16 -20 25 -66 38 -92 26 -213 81 -307 139 -46 29
-105 65 -130 80 -25 16 -52 36 -60 45 -12 15 -13 13 -7 -13z m285 -240 c49
-26 63 -75 36 -125 -13 -23 -12 -28 19 -70 42 -57 51 -99 31 -138 -23 -45 -61
-55 -185 -50 -120 5 -156 19 -167 65 -10 37 5 55 64 78 36 14 53 27 57 43 4
15 21 30 50 42 36 15 45 24 45 43 0 17 -7 27 -22 31 -43 11 -55 6 -82 -34 -30
-46 -70 -54 -101 -20 -31 34 7 109 69 136 42 18 150 18 186 -1z"/>
<path d="M2531 4198 c-78 -40 -81 -53 -81 -351 0 -280 4 -305 55 -345 27 -21
35 -22 314 -22 326 0 330 1 369 82 20 41 21 57 19 300 -2 242 -3 258 -23 284
-11 15 -33 37 -48 48 -26 20 -43 21 -294 24 -262 3 -268 2 -311 -20z m234
-160 c6 -1 36 2 69 6 78 11 130 -4 156 -47 29 -46 26 -108 -5 -145 -30 -36
-31 -49 -5 -82 25 -32 25 -51 -2 -85 -21 -27 -22 -28 -102 -20 -45 4 -97 8
-117 10 -20 1 -44 7 -55 13 -24 14 -23 14 90 137 99 107 101 117 16 119 -47 2
-53 0 -66 -26 -18 -35 -58 -38 -91 -6 -33 31 -29 64 12 105 29 29 40 34 63 29
15 -4 32 -7 37 -8z"/>
<path d="M3590 4209 c-14 -6 -36 -20 -48 -32 -50 -46 -52 -59 -52 -329 0 -225
2 -257 19 -294 34 -75 30 -74 349 -74 314 0 323 2 361 63 20 33 21 48 21 298
0 290 -3 309 -63 353 -27 20 -43 21 -295 23 -165 1 -277 -2 -292 -8z m364
-173 c73 -31 96 -104 52 -169 -23 -34 -24 -36 -6 -52 10 -9 24 -30 31 -46 10
-26 9 -36 -4 -65 -23 -48 -54 -57 -177 -51 -98 5 -106 7 -128 32 -35 41 -11
93 57 122 37 16 50 11 32 -11 -16 -19 18 -42 77 -52 40 -6 42 -6 42 19 0 23
-7 28 -47 40 -70 20 -69 41 6 96 33 24 19 41 -33 41 -36 0 -45 -4 -55 -26 -10
-23 -16 -26 -43 -20 -37 7 -68 32 -68 54 0 22 48 82 74 92 34 14 153 11 190
-4z"/>
<path d="M4613 4201 c-77 -36 -78 -40 -78 -341 0 -146 4 -277 8 -292 4 -14 21
-40 38 -57 l31 -31 284 0 c314 0 322 1 366 62 22 31 23 44 26 208 2 96 1 222
-3 279 -7 99 -9 105 -40 140 l-33 36 -174 6 c-314 12 -378 11 -425 -10z m436
-165 c65 -34 82 -120 35 -175 -24 -29 -27 -61 -5 -61 17 0 32 -65 22 -93 -18
-47 -52 -60 -138 -55 -68 5 -79 8 -100 32 -30 36 -29 71 3 101 15 14 30 25 35
25 4 0 17 16 29 35 12 19 33 40 48 47 37 18 36 52 -1 56 -17 2 -36 -3 -47 -13
-11 -10 -31 -15 -52 -13 -26 2 -34 8 -36 26 -11 74 124 130 207 88z m-240 -14
c6 -10 8 -82 5 -168 -2 -82 -4 -159 -4 -171 0 -19 -6 -23 -29 -23 -16 0 -34 7
-41 15 -6 8 -16 67 -21 132 -4 65 -11 130 -15 144 -13 55 80 118 105 71z"/>
<path d="M7278 4072 c-102 -44 -106 -47 -101 -73 7 -36 -32 -77 -131 -136
-114 -69 -112 -78 12 -70 94 7 102 6 112 -12 15 -29 12 -56 -9 -75 -16 -14
-39 -16 -171 -14 -171 3 -178 6 -166 71 5 28 21 48 75 94 38 32 92 67 121 78
54 21 134 81 95 71 -66 -17 -220 -30 -352 -30 l-153 -1 0 -186 c0 -219 3 -241
42 -280 l30 -29 291 0 c330 0 344 3 383 73 20 36 21 54 23 294 1 140 4 259 7
264 7 11 17 15 -108 -39z"/>
<path d="M1925 1661 c-39 -18 -75 -63 -75 -96 0 -32 31 -75 73 -100 49 -28
124 -34 167 -12 68 34 95 153 45 202 -21 22 -33 25 -97 25 -49 0 -86 -6 -113
-19z"/>
<path d="M3205 1671 c-220 -3 -406 -10 -413 -14 -7 -5 -22 -27 -33 -49 -18
-35 -20 -47 -10 -77 6 -20 22 -49 35 -66 l24 -30 2154 -3 c1184 -2 2186 0
2227 3 70 7 76 9 117 51 25 25 44 53 44 65 0 29 -45 105 -67 113 -22 9 -3564
15 -4078 7z"/>
<path d="M8095 1671 c-55 -9 -63 -16 -75 -62 -23 -83 26 -163 106 -175 70 -10
114 3 156 47 31 32 38 47 38 80 0 98 -75 135 -225 110z"/>
<path d="M2394 1660 c-29 -12 -74 -72 -74 -99 0 -28 16 -59 48 -93 24 -26 32
-28 99 -28 68 0 74 2 90 27 13 20 18 47 18 99 0 95 -9 104 -94 103 -36 0 -76
-4 -87 -9z"/>
<path d="M7559 1663 c-18 -4 -39 -71 -39 -121 0 -16 10 -44 23 -63 l23 -34 93
-3 c79 -2 97 0 126 18 62 38 78 85 50 140 -30 59 -58 70 -164 69 -53 -1 -103
-3 -112 -6z"/>
</g>
</svg>
