<?xml version="1.0" encoding="utf-8"?>
<!-- Generator: Adobe Illustrator 24.0.0, SVG Export Plug-In . SVG Version: 6.00 Build 0)  -->
<svg version="1.1" id="Layer_4" xmlns="http://www.w3.org/2000/svg" xmlns:xlink="http://www.w3.org/1999/xlink" x="0px" y="0px"
	 viewBox="0 0 100 100" style="enable-background:new 0 0 100 100;" xml:space="preserve">
<style type="text/css">
	.st0{fill:#3B3E40;}
</style>
<path class="st0" d="M47,56.8h-1v-2.4h1c-0.2,0.4-0.2,0.8-0.2,1.2C46.8,56,46.8,56.4,47,56.8z M54.3,58.2h-2.4
	c-0.5,0.4-1.2,0.6-1.9,0.6c-1.2,0-2.2-0.6-2.8-1.6H46v0.8h-0.5V59c0,0.8,0.6,1.4,1.4,1.4h6c0.8,0,1.4-0.6,1.4-1.4v0v-0.2V58.2z
	 M46,53.9h1.2c0.6-0.9,1.6-1.6,2.8-1.6c0.6,0,1.2,0.2,1.7,0.5h2.7v-0.5c0-1-0.8-1.8-1.8-1.8h-5.3c-1,0-1.8,0.8-1.8,1.8v0.4H46V53.9z
	 M54.7,58.7H57l0.2-0.5v-5.4l-0.3-0.5h-0.8l-0.1,0.1c0,0,0,0.1-0.1,0.1c-0.1,0.2-0.3,0.4-0.5,0.5c-0.1,0-0.4,0-0.8,0.1v5.1V58.7z
	 M47.2,55.6c0-1.5,1.3-2.8,2.8-2.8c1.5,0,2.8,1.3,2.8,2.8c0,1.5-1.3,2.8-2.8,2.8C48.4,58.4,47.2,57.1,47.2,55.6z M47.7,55.6
	c0,1.3,1,2.3,2.3,2.3c1.3,0,2.3-1,2.3-2.3s-1-2.3-2.3-2.3C48.7,53.3,47.7,54.3,47.7,55.6z M41.6,41.4c-1.9-0.4-3.9-0.8-5.8-1.2
	c-1.9-0.4-3.8-0.8-5.6-1.2c-0.5-0.1-0.9-0.4-1.2-0.8c-0.2-0.2-0.3-0.5-0.4-0.7c0-0.1-0.1-0.2-0.1-0.3c0-0.4,0-0.9,0-1.3
	c0-0.2,0-0.3-0.1-0.5c0,0,0-0.1,0-0.2c0.1,0,0.2,0.1,0.3,0.1c0.2,0.1,0.5,0.2,0.7,0.2c0.4,0.1,0.8,0.1,1.2,0c0.7-0.3,1.4-0.5,2-0.8
	c1.5-0.6,2.9-1.3,4.4-2c0.6-0.3,1.1-0.6,1.6-0.9c0.3-0.2,0.7-0.4,1-0.5c0.3-0.1,0.5-0.2,0.8-0.2c0,0,0.1,0,0.1-0.1
	c-0.1-0.2-0.2-0.3-0.3-0.4c-0.3-0.2-0.6-0.3-0.9-0.5c-0.6-0.3-1.3-0.4-2-0.3c-0.5,0.1-1,0.2-1.4,0.2l-5.4,1.1
	c-0.7,0.2-1.5,0.3-2.2,0.5c-0.5,0.1-0.9,0.4-1.2,0.7c-0.2,0.2-0.5,0.4-0.7,0.6c-0.9-0.5-1.8-0.5-2.6-0.3c-0.4,0.1-0.8,0.2-1.2,0.1
	c-0.1,0-0.1,0-0.2,0c-0.1,0-0.3,0-0.4-0.1c-1.3-0.5-2.6-1-3.9-1.5c-1.5-0.6-2.9-1.1-4.4-1.5c-0.8-0.2-1.7-0.4-2.4-0.9
	c-0.1-0.1-0.2,0-0.2,0c-0.2,0.1-0.3,0.3-0.4,0.5c-0.1,0.3-0.1,0.5,0.2,0.7c0.1,0.1,0.3,0.2,0.5,0.3c0.2,0.1,0.4,0.2,0.6,0.3
	c1.7,0.7,3.4,1.3,5.2,1.8c1.6,0.5,3.1,1,4.6,1.7c0.1,0,0.1,0.1,0.2,0.1c-0.2,0.1-0.3,0.2-0.4,0.3c-0.3,0.3-0.5,0.7-0.5,1.2
	c0,0.6,0,1.2,0,1.8c0,0.2,0,0.3-0.1,0.5c-0.1,0.4-0.2,0.8-0.2,1.3c0.1,0.8,0.5,1.4,1,2c0.1,0.1,0.1,0.2,0.2,0.3
	c0.1,0.5,0.2,0.9,0.4,1.3c0.2,0.3,0.2,0.7,0,1c0,0.1-0.1,0.1-0.1,0.2c0.1,0,0.1,0,0.1,0c0.3,0,0.6,0,1-0.1c0.5-0.1,1-0.3,1.4-0.6
	c0.4-0.2,0.7-0.5,0.8-0.9c0-0.1,0.1-0.1,0.2-0.1c0.2-0.1,0.4-0.1,0.7-0.2c0.4-0.2,0.7-0.4,1.1-0.5c0.5-0.3,1-0.3,1.5-0.1
	c3.6,1.2,7.1,2.4,10.7,3.5c0.7,0.2,1.4,0.5,2.1,0.7c0.4-1.4,0.9-3.2,1.3-4.5C42.6,41.5,42.1,41.5,41.6,41.4z M43.9,52.6
	c-0.3-0.3-0.4-0.2-0.5-0.2c0,0-0.2,0.2-0.2,1.6c0,0.8,0.5,2.5,0.7,3.2c0,0.1,0.1,0.2,0.1,0.3c0,0,0,0.1,0.1,0.1v-4.6
	C44.1,52.8,44,52.7,43.9,52.6z M53.2,55.6c0,0.8-0.3,1.6-0.9,2.2h2v-4.5h-2.1C52.8,53.8,53.2,54.6,53.2,55.6z M50,57.5
	c1,0,1.9-0.8,1.9-1.9c0-1-0.8-1.9-1.9-1.9c-1,0-1.9,0.8-1.9,1.9C48.1,56.6,48.9,57.5,50,57.5z M58.4,45.8c2.4-0.8,4.9-1.6,7.3-2.4
	c1.8-0.6,3.6-1.2,5.4-1.8c0.3-0.1,0.5-0.2,0.8-0.1c0.2,0.1,0.5,0.1,0.7,0.2c0.5,0.3,1.1,0.6,1.7,0.7c0.1,0,0.1,0.1,0.1,0.1
	c0.1,0.4,0.4,0.6,0.7,0.8c0.6,0.4,1.2,0.6,1.9,0.7c0.2,0,0.4,0.1,0.6,0c0,0,0,0,0,0c0,0,0-0.1,0-0.1c-0.2-0.4-0.2-0.7,0-1.1
	c0.2-0.3,0.3-0.6,0.4-0.9c0-0.1,0.1-0.2,0.2-0.3c0.2-0.1,0.3-0.3,0.5-0.5c0.7-0.9,1-1.8,0.6-2.9c0-0.1,0-0.2,0-0.3
	c0-0.7,0-1.5,0-2.2c0-0.6-0.2-1-0.6-1.3c-0.1-0.1-0.2-0.1-0.3-0.2c0,0,0,0,0.1-0.1c0.7-0.3,1.4-0.6,2.1-0.9c1.2-0.4,2.4-0.8,3.5-1.2
	c1.6-0.5,3.2-1,4.8-1.7c0.2-0.1,0.4-0.2,0.6-0.3c0.5-0.3,0.5-0.9,0.1-1.3c-0.2-0.2-0.3-0.2-0.5-0.1c-0.5,0.3-1.1,0.5-1.6,0.7
	c-0.4,0.1-0.9,0.2-1.3,0.3c-1.6,0.4-3.1,1-4.6,1.6c-1.1,0.4-2.1,0.8-3.2,1.2c-0.1,0-0.2,0.1-0.3,0.1c-0.3,0-0.6,0-0.9,0
	c-0.1,0-0.2,0-0.4,0c-0.3-0.1-0.7-0.2-1-0.2c-0.6,0-1.2,0-1.8,0.3c-0.1,0-0.1,0-0.2,0c-0.2-0.2-0.4-0.3-0.6-0.5
	c-0.3-0.3-0.7-0.6-1.2-0.7c-0.2-0.1-0.4-0.1-0.6-0.2c-2.7-0.7-5.4-1.3-8.2-1.8c-0.4-0.1-0.8-0.1-1.2,0c-0.7,0.1-1.3,0.4-2,0.7
	c-0.1,0.1-0.2,0.1-0.2,0.3c0,0.2,0.2,0.2,0.3,0.2c0.6,0.2,1.2,0.4,1.7,0.8c0.5,0.3,1,0.6,1.6,0.9c0.5,0.3,1.1,0.5,1.6,0.8
	c1.5,0.7,3.1,1.5,4.7,2c0.3,0.1,0.7,0.1,1,0c0.3-0.1,0.6-0.2,0.8-0.2c0.1,0,0.2-0.1,0.3-0.1c-0.2,0.3-0.2,0.6-0.2,0.8
	c0,0.3,0,0.7,0,1c0,0.3,0,0.5-0.2,0.7c-0.2,0.2-0.3,0.5-0.5,0.7c-0.3,0.4-0.7,0.6-1.1,0.7c-0.9,0.2-1.8,0.4-2.7,0.6
	c-2.9,0.6-5.9,1.2-8.8,1.8c-0.5,0.1-1,0.1-1.4,0C57.4,42.6,58,44.5,58.4,45.8C58.4,45.8,58.4,45.8,58.4,45.8z M45.2,38.6
	c0.3-0.2,0.7-0.4,1.1-0.5c0.8-0.2,1.6-0.3,2.4-0.4c0.8-0.1,1.7-0.1,2.5,0c0.9,0.1,1.7,0.2,2.5,0.4c0.4,0.1,0.7,0.3,1,0.5
	c0.1,0.6,0.2,2.3,0.2,3.1c-0.2,2.6-1,6.1-1,6.1l0,0l0,0c0,0.1,0.1,0.2,0.4,0.7c0.4,0.5,0.8,1.2,0.8,1.2l0.1,0.1l0.1,0
	c0,0,0.5,0,0.7,0.3c0.2,0.5-0.1,0.8-0.2,0.8l-0.1,0.1l0.2,0.7c0,0,0.6-0.1,0.7,0c0.1,0,0.1,0.1,0.2,0.2H56l-0.2,0.2
	c0,0-0.1,0.1-0.1,0.1c-0.1,0.1-0.2,0.3-0.3,0.3c0,0-0.2,0-0.7,0.1v-0.4c0-1.2-1-2.2-2.2-2.2h-5.3c-1.2,0-2.2,1-2.2,2.2v0.4h-0.5
	c0,0-0.1,0-0.1,0c0-0.1-0.1-0.2-0.2-0.3c-0.3-0.4-0.6-0.4-0.9-0.3c0-0.1,0.1-0.2,0.1-0.3c0.1,0,0.3,0,0.4,0.1l0.2,0.1l0.2-0.6l0-0.1
	l-0.1-0.1c0,0-0.4-0.3-0.2-0.8c0.2-0.4,0.7-0.3,0.7-0.3l0.1,0l0.1-0.1c0,0,0.4-0.7,0.8-1.2c0.3-0.5,0.4-0.6,0.4-0.7l0,0l0,0
	c0,0-0.9-3.5-1-6.1C45,40.9,45.2,39.2,45.2,38.6z M46.8,46.6c0,1.1,0.9,1.9,1.9,1.9h2.8c1.1,0,1.9-0.9,1.9-1.9v-2.4
	c0-0.6-0.5-1.1-1.1-1.1c-0.1,0-1.2-0.1-2.2-0.1c-1,0-2,0.1-2.1,0.1c-0.6,0-1.1,0.5-1.1,1.1V46.6z M45.3,53.1L45.3,53.1
	c-0.1,0-0.2,0-0.3,0c-0.2,0-0.3,0-0.5,0v4.5h1v-4.5h-0.1v0L45.3,53.1z M47.2,46.6v-2.4c0-0.4,0.3-0.7,0.7-0.7l0,0c0,0,1-0.1,2.1-0.1
	c1.1,0,2.2,0.1,2.2,0.1l0,0c0.4,0,0.7,0.3,0.7,0.7v2.4c0,0.8-0.7,1.5-1.5,1.5h-2.8C47.8,48.1,47.2,47.4,47.2,46.6z M51.8,45.3
	c0,0.1,0.1,0.2,0.2,0.2s0.2-0.1,0.2-0.2v-1.5c0-0.1-0.1-0.2-0.2-0.2s-0.2,0.1-0.2,0.2V45.3z M51,45.3c0,0.1,0.1,0.2,0.2,0.2
	c0.1,0,0.2-0.1,0.2-0.2v-1.5c0-0.1-0.1-0.2-0.2-0.2c-0.1,0-0.2,0.1-0.2,0.2V45.3z M50.2,45.3c0,0.1,0.1,0.2,0.2,0.2
	c0.1,0,0.2-0.1,0.2-0.2v-1.5c0-0.1-0.1-0.2-0.2-0.2c-0.1,0-0.2,0.1-0.2,0.2V45.3z M49.4,45.3c0,0.1,0.1,0.2,0.2,0.2
	c0.1,0,0.2-0.1,0.2-0.2v-1.5c0-0.1-0.1-0.2-0.2-0.2c-0.1,0-0.2,0.1-0.2,0.2V45.3z M48.6,45.3c0,0.1,0.1,0.2,0.2,0.2
	c0.1,0,0.2-0.1,0.2-0.2v-1.5c0-0.1-0.1-0.2-0.2-0.2c-0.1,0-0.2,0.1-0.2,0.2V45.3z M47.8,45.3c0,0.1,0.1,0.2,0.2,0.2s0.2-0.1,0.2-0.2
	v-1.5c0-0.1-0.1-0.2-0.2-0.2s-0.2,0.1-0.2,0.2V45.3z M99,63.4c-0.1,0-0.1,0-0.2,0c-1-0.3-2-0.2-3,0c-0.5,0.1-1.1,0.2-1.6,0.2
	c-1.9,0.1-6.9,0.3-9.6,0c-0.3,0-0.5-0.1-0.8-0.3c-0.1-0.1-0.2-0.1-0.3-0.2c0,0.1,0,0.2,0,0.3c-0.1,0.6-0.1,1.3-0.2,1.9
	c-0.1,0.7-0.5,1.3-1.1,1.7c-0.2,0.1-0.4,0.3-0.6,0.4c-0.2,0.1-0.3,0.3-0.3,0.5c-0.1,1.3-0.4,2.6-0.6,3.9c-0.2,1.1-0.4,2.3-0.6,3.4
	c-0.1,0.3-0.2,0.9-0.5,1.2c-0.2,0.2-0.5,0.3-0.8,0c-0.1-0.1-0.4-0.7-0.6-1.8c-0.2-1.3-0.3-2.6-0.5-3.8c-0.1-0.9-0.3-1.8-0.4-2.7
	c0-0.3-0.1-0.5-0.4-0.7c-0.3-0.2-1.8-1.2-2.2-1.4c-0.1,0.1-0.2,0.1-0.2,0.2c-1.3,1.1-2.7,2.3-4.1,3.3c-0.2,0.1-0.4,0.3-0.6,0.4
	c-0.5,0.4-1.1,0.6-1.8,0.7c-0.7,0.1-1.4,0-2.1-0.2c-0.2,0-0.4-0.2-0.6-0.3c0.1-0.1,0.6-0.4,0.8-0.5c0.3-0.2,0.7-0.5,0.9-0.9
	c0.5-0.8,1.1-1.6,1.8-2.3c0.4-0.4,0.9-0.9,1.3-1.3c0,0,0.1-0.1,0.2-0.2c-3.4-0.6-6.7-1.2-10.1-1.8c0,0.2,0.1,0.4,0.1,0.6
	c0,0.3,0,0.6,0,0.9c0,0.4-0.1,0.8-0.2,1.2c0,0.5-0.2,0.8-0.6,1c-0.9,0.5-1.7,0.4-2.6-0.1c-0.4-0.2-0.6-0.6-0.6-1c0-0.3,0-0.5,0-0.8
	c-0.4,0-0.8-0.1-1.3-0.1c0,0.3-0.1,0.5-0.1,0.7c0,0.4-0.2,0.7-0.5,0.9c-0.2,0.1-0.4,0.3-0.6,0.4c-0.5,0.2-1,0.5-1.5,0.7
	c-0.3,0.1-0.5,0.2-0.8,0.2c-1.1,0-2.2,0-3.3,0c-0.3,0-0.5-0.1-0.8-0.1c-0.7-0.2-1.3-0.6-1.9-1c-0.4-0.3-0.7-0.6-0.7-1.2
	c0-0.2,0-0.4-0.1-0.6c-0.4,0-0.8,0.1-1.3,0.1c0,0.3-0.1,0.5-0.1,0.8c0,0.5-0.2,0.8-0.6,1.1c-0.6,0.4-1.3,0.5-2.1,0.2
	c-0.2-0.1-0.3-0.1-0.5-0.2c-0.3-0.2-0.6-0.5-0.6-0.9c0-0.2-0.1-0.5-0.1-0.7c0-0.6-0.3-1.4,0-2c-0.2,0-8.7,1.5-10.1,1.8
	c0,0.1,0.1,0.1,0.2,0.2c0.6,0.6,1.3,1.2,1.9,1.9c0.4,0.4,0.8,0.9,1.1,1.5c0.3,0.6,0.8,1,1.3,1.3c0,0,0.1,0,0.1,0
	c0.1,0.1,0.2,0.1,0.2,0.2c0,0.2-0.1,0.2-0.2,0.3c-0.2,0.1-0.4,0.1-0.7,0.2c-0.7,0.1-1.4,0.2-2.2,0c-0.5-0.1-0.9-0.3-1.3-0.6
	c-1.5-1.1-3-2.4-4.4-3.6c-0.1-0.1-0.3-0.2-0.4-0.4c-0.1,0-0.1,0-0.2,0.1c-0.4,0.2-0.8,0.5-1.2,0.7c-0.3,0.2-0.6,0.5-1,0.7
	c-0.2,0.1-0.2,0.3-0.3,0.5c-0.2,1.4-0.4,2.8-0.6,4.3c-0.1,1-0.3,2-0.4,2.9c0,0.3-0.1,0.6-0.2,0.9c0,0.1-0.1,0.3-0.3,0.4
	c-0.2,0.2-0.6,0.2-0.8,0c-0.1-0.2-0.2-0.3-0.3-0.5c-0.1-0.4-0.2-0.8-0.3-1.2c-0.3-1.5-0.5-3.1-0.8-4.6c-0.1-0.7-0.2-1.4-0.3-2.1
	c0-0.3-0.2-0.4-0.4-0.6c-0.2-0.1-0.5-0.3-0.7-0.5c-0.5-0.4-0.8-1-0.9-1.6c-0.1-0.7-0.2-1.3-0.2-2c0,0,0-0.1,0-0.2
	c-0.1,0-0.1,0.1-0.2,0.1c-0.3,0.2-0.6,0.3-1,0.3c-1.6,0.2-3.2,0.2-4.7,0.2c-1.6,0-3.1-0.1-4.7-0.1c-0.7,0-1.4-0.1-2.1-0.2
	c-0.8-0.1-1.6-0.1-2.4,0.1c-0.1,0-0.1,0-0.2,0c0,0,0,0-0.1,0c-0.1-0.2-0.1-0.5,0-0.7c0.1-0.3,0.3-0.6,0.4-0.9c0.4-0.7,1-1.1,1.8-1.3
	c1.1-0.2,2.2-0.5,3.3-0.7c1.4-0.3,2.8-0.5,4.2-0.7c1.3-0.2,2.6-0.4,3.9-0.6c0.5-0.1,1.1,0,1.6,0.2c0.4,0.1,0.8,0.2,1.2,0.3
	c0.1,0,0.2,0,0.3,0c0.2-0.1,0.3-0.2,0.5-0.3c0.1,0,0.1-0.1,0.2-0.1c0.4-0.5,0.8-0.7,1.4-0.9c0,0,0.1,0,0.1,0c0,0,0,0,0,0
	c0,0,0-0.1,0-0.2c-0.2-0.5-0.1-0.9,0.2-1.3c1.2-2.3,3.3-5.3,3.7-5.9c0.4-0.6,0.9-1.1,1.4-1.6c0.4-0.3,0.6-0.8,0.8-1.2
	c0-0.1,0.1-0.2,0.1-0.3c0-0.1,0.2-0.2,0.4-0.1c0.7,0.2,1.4,0.8,1.6,1c0.3,0.3,0.3,0.7,0.2,1.1c-0.2,0.5-0.4,1-0.6,1.5
	c-0.9,1.8-1.8,3.7-2.8,5.4c-0.3,0.5-0.6,1-1,1.4c-0.3,0.3-0.5,0.7-0.8,1c0.5,0.2,1,0.6,1.3,0.9c0.4,0.5,0.7,1,0.6,1.7
	c0,0.4-0.1,0.3,0.3,0.5c0.3,0.1,0.5,0.3,0.8,0.4C26,62,26.1,62,26.2,62c0.8-0.2,1.6-0.3,2.4-0.5c3.2-0.8,6.4-1.5,9.6-2.3
	c0.9-0.2,1.8-0.4,2.7-0.6c0.1,0,0.2-0.1,0.3-0.1c0,0,0,0,0,0c0.2,0.1,0.5,0.7,0.5,1.4c0.1,0.8-0.1,2.5-0.1,2.5
	c0,0.1,0.1,0.2,0.2,0.2c0,0,0,0,0,0c0.1,0,0.2-0.1,0.2-0.2c0-0.1,0.2-1.7,0.1-2.6c-0.1-0.7-0.3-1.4-0.6-1.7c0,0,0.1-0.1,0.1-0.1
	c0.1-0.2,0.1-0.8,0.1-0.9c-0.2-0.4-0.3-0.9-0.3-1.3c0-1.2-0.1-5.3-0.1-6.1c0-0.4,0-0.8,0.1-1.2c0-0.1,0-0.2,0.1-0.2
	c0.1-0.3,1.7-5.9,2.1-7.2c0,0,0,0,0-0.1c0.3-0.5,0.5-1,0.8-1.5c0.1-0.2,0.3-0.4,0.4-0.6c-0.1,0.8-0.2,2-0.1,2.8
	c0.2,2.4,0.9,5.6,1,6.1c0,0.1-0.1,0.2-0.3,0.5c-0.3,0.4-0.6,0.9-0.7,1.1c-0.2,0-0.7,0.1-0.9,0.6c-0.3,0.6-0.1,1,0.2,1.2l0,0.1
	c-0.2-0.1-0.5-0.1-0.7,0.1c-0.2,0.2-0.3,0.6-0.3,1.6c0,0.2,0,0.5,0,0.8c0,0.8,0.5,2.5,0.7,3.3c0,0.1,0.1,0.2,0.1,0.3
	c0.1,0.3,0.3,0.5,0.7,0.7c0,0,0.2,0.1,0.7,0.1V59c0,1,0.8,1.8,1.8,1.8h6c1,0,1.8-0.7,1.8-1.7h2.5l0.4-0.8v-5.6l-0.3-0.7l0,0
	c-0.1-0.3-0.2-0.5-0.4-0.6c-0.2-0.1-0.4-0.1-0.6-0.1l0-0.1c0.2-0.2,0.4-0.7,0.2-1.2c-0.2-0.5-0.7-0.6-0.9-0.6
	c-0.1-0.2-0.4-0.7-0.7-1.1c-0.2-0.3-0.3-0.4-0.3-0.5c0.1-0.5,0.9-3.7,1-6.1c0.1-0.7,0-2-0.1-2.7c0.1,0.1,0.3,0.3,0.4,0.5
	c0.3,0.5,0.6,1,0.8,1.6c0,0,0,0.1,0.1,0.1c0.4,1.2,1.5,5,1.5,5c0.1,0.3,0.4,1.8,0.6,2.2c0.1,0.2,0.1,0.5,0.1,0.7c0,0.2,0,0.3,0,0.5
	c0,2,0,4-0.1,6c0,0.4-0.1,0.7-0.1,1.1c0,0.1-0.2,0.6-0.3,0.8c-0.1,0.3,0,0.6,0.2,0.8c-0.3,0.3-0.6,0.9-0.7,1.7
	c-0.1,0.8,0.1,2.5,0.1,2.6c0,0.1,0.1,0.2,0.2,0.2c0,0,0,0,0,0c0.1,0,0.2-0.1,0.2-0.2c0,0-0.2-1.7-0.1-2.5c0.1-0.8,0.3-1.3,0.5-1.4
	c0,0,0.1,0,0.2-0.1c0.1,0,0.2,0.1,0.3,0.1c2.7,0.6,5.4,1.3,8.1,1.9c1.6,0.4,3.1,0.8,4.7,1.1c0.6,0.1,1.2,0.3,1.8,0.4
	c0.1,0,0.2,0,0.3,0c0.4-0.2,0.7-0.4,1.1-0.6c-0.1-1.5,0.7-2.4,1.9-3c0,0,0-0.1,0-0.1c-0.3-0.4-0.6-0.7-0.9-1.1
	c-0.3-0.3-0.5-0.6-0.7-1c-0.7-1.4-1.4-2.7-2.1-4.1c-0.5-1-1-2-1.4-3c-0.3-0.7,0-1.2,0.4-1.5c0.3-0.3,1.1-0.8,1.7-0.8
	c0,0.1,0.1,0.2,0.1,0.2c0.1,0.5,0.3,1,0.7,1.4c1.3,1.2,2.3,2.7,3.2,4.2c0.7,1.1,1.3,2.3,2,3.4c0.3,0.4,0.3,0.9,0.1,1.5
	c0.1,0,0.1,0,0.2,0.1c0.5,0.2,1,0.4,1.4,0.9c0,0.1,0.4,0.3,0.6,0.4c0.2,0.1,0.3,0.1,0.5,0.1c0.4-0.1,0.7-0.2,1.1-0.3
	c0.5-0.2,1.1-0.2,1.6-0.2c1.5,0.2,7.8,1.3,9.6,1.6c0.6,0.1,1.2,0.2,1.7,0.4c1,0.2,1.7,0.9,2.2,1.8C98.9,62.3,99.3,62.9,99,63.4z
	 M21,74.5L20.8,70c0-0.2-0.1-0.3-0.3-0.3c-0.2,0-0.3,0.1-0.3,0.3l0.2,4.5c0,0.2,0.1,0.3,0.3,0.3c0,0,0,0,0,0
	C20.9,74.8,21,74.7,21,74.5z M79.8,70c0-0.2-0.1-0.3-0.3-0.3c-0.2,0-0.3,0.1-0.3,0.3L79,74.5c0,0.2,0.1,0.3,0.3,0.3c0,0,0,0,0,0
	c0.2,0,0.3-0.1,0.3-0.3L79.8,70z"/>
</svg>
