<svg xmlns="http://www.w3.org/2000/svg" viewBox="0 0 16 16"><path d="M1.9 2.8c.6 1.6 2 1.9 2 1.9V10c-1.2-.7-2-2.2-2-2.2v-5zm10.2 2c1.5-.5 2-1.9 2-1.9v4.9c-.7 1.6-2 2.3-2 2.3V4.8zM4.4 5c1.7.7 2.6.6 2.6.6l1.7 2.1.2-2.1c2.1 0 2.6-.6 2.6-.6v5.4c-2.3 1-2.9.8-2.9.8L7 9.1l-.2 2.1c-2.1-.2-2.4-.8-2.4-.8V5zm1 6.3c1.4.4 1.7.3 1.7.3l.2-1.8 1.2 1.7c.7.1 1.5-.1 1.5-.1l.5 3.6-2.8-1.3L4.5 15l.9-3.7zm3.4-9.6c.1.2.5 3.4.5 3.4h-.7s-.2 0-.1.1c0 .1-.1 1.5-.1 1.5L7.2 5.2S7.1 5 7 5h-.4S7 3 7 2.8c0-.2-.6-.3-1-.4-.1 0-.3.1-.3.1l.3-.9c0-.1.1-.2.2-.2h.7c.1 0 .2 0 .3-.1.1-.2.2-.4.8-.3.5 0 .7.5.8.7z" fill-rule="evenodd" clip-rule="evenodd" fill="#075895"/></svg>