<?xml version="1.0" standalone="no"?>
<!DOCTYPE svg PUBLIC "-//W3C//DTD SVG 20010904//EN"
 "http://www.w3.org/TR/2001/REC-SVG-20010904/DTD/svg10.dtd">
<svg version="1.0" xmlns="http://www.w3.org/2000/svg"
 width="1024.000000pt" height="1024.000000pt" viewBox="0 0 1024.000000 1024.000000"
 preserveAspectRatio="xMidYMid meet">
<metadata>
Created by potrace 1.16, written by Peter Selinger 2001-2019
</metadata>
<g transform="translate(0.000000,1024.000000) scale(0.100000,-0.100000)"
fill="#000000" stroke="none">
<path d="M7026 8744 c-475 -64 -880 -397 -1030 -845 -78 -235 -74 -535 10
-771 119 -331 390 -617 713 -753 329 -139 733 -125 1054 35 244 122 457 340
585 595 82 164 116 321 116 525 0 351 -146 666 -427 917 -182 164 -423 269
-692 302 -113 14 -203 13 -329 -5z m44 -435 c0 -157 2 -175 21 -206 39 -62
123 -82 186 -43 57 34 63 59 63 251 l0 172 50 -7 c201 -27 450 -169 587 -336
283 -344 305 -785 57 -1161 -54 -82 -181 -205 -275 -265 -256 -166 -579 -208
-864 -113 -269 90 -475 269 -591 513 -73 155 -88 224 -88 416 0 151 3 173 28
255 82 271 305 521 558 626 82 34 199 68 241 68 l27 1 0 -171z"/>
<path d="M7479 7912 c-24 -16 -67 -53 -94 -83 -83 -88 -355 -349 -365 -349 -5
0 -53 41 -107 91 -131 123 -167 137 -250 100 -48 -22 -73 -62 -73 -116 0 -50
22 -87 72 -124 24 -18 97 -82 163 -145 66 -62 130 -118 142 -124 31 -17 69
-15 111 5 20 9 163 141 319 292 316 306 321 312 289 395 -33 86 -123 111 -207
58z"/>
<path d="M4850 8673 c-484 -50 -990 -224 -1376 -474 -50 -32 -94 -59 -97 -59
-4 0 -7 41 -7 90 0 82 -2 93 -24 115 -51 51 -141 38 -190 -29 -13 -17 -64
-134 -114 -259 -101 -250 -109 -292 -72 -352 38 -62 56 -65 370 -65 309 0 325
3 355 60 36 69 4 131 -87 170 l-52 22 29 25 c52 42 198 130 314 187 218 110
442 187 680 235 195 40 307 51 511 51 213 0 324 -12 519 -56 85 -18 167 -34
183 -34 40 0 88 22 118 55 21 22 25 36 25 90 0 114 -48 142 -320 191 -167 30
-342 44 -535 42 -107 -1 -211 -3 -230 -5z"/>
<path d="M4990 7904 c-218 -15 -455 -59 -650 -120 -139 -44 -353 -126 -398
-154 -69 -43 -94 -139 -52 -208 27 -44 98 -76 148 -67 19 4 97 33 172 65 383
164 710 214 1166 178 168 -13 190 -9 239 43 40 41 46 120 13 168 -33 50 -72
68 -168 81 -92 11 -382 20 -470 14z"/>
<path d="M2443 7129 c-53 -10 -91 -30 -127 -66 -50 -49 -66 -97 -66 -200 l0
-93 -133 0 c-123 0 -137 -2 -185 -26 -61 -30 -118 -93 -132 -145 -7 -24 -9
-560 -8 -1531 l3 -1493 27 -47 c16 -25 45 -60 65 -77 69 -57 98 -61 403 -61
l276 0 47 64 c108 147 273 269 445 326 88 30 110 34 247 38 233 6 384 -33 556
-145 82 -53 193 -161 238 -230 l34 -53 722 0 c813 0 776 -3 864 76 27 25 60
66 73 92 l23 47 3 1465 c2 1052 -1 1480 -9 1519 -9 42 -21 65 -56 102 -57 61
-108 79 -223 79 l-87 0 -5 103 c-5 112 -16 143 -70 194 -45 43 -102 66 -168
66 -65 0 -113 -18 -165 -64 -58 -51 -75 -97 -75 -207 l0 -92 -207 2 -208 3 -5
100 c-6 110 -17 140 -72 192 -71 68 -183 84 -275 38 -92 -46 -133 -127 -133
-262 l0 -73 -205 0 -205 0 0 83 c0 106 -13 149 -58 199 -97 107 -269 108 -363
1 -48 -55 -59 -92 -59 -193 l0 -90 -220 0 -220 0 0 83 c0 50 -6 102 -16 130
-34 100 -159 168 -271 146z m96 -163 c47 -25 51 -47 51 -314 0 -271 -1 -278
-59 -302 -39 -16 -76 -6 -107 27 l-24 26 0 254 c0 155 4 262 10 273 12 23 57
49 83 50 10 0 30 -6 46 -14z m920 0 c47 -25 51 -48 51 -307 0 -265 -4 -286
-59 -309 -39 -16 -76 -6 -107 27 l-24 26 0 256 c0 219 2 260 16 279 28 41 77
52 123 28z m891 -1 c16 -8 34 -24 40 -34 6 -12 10 -119 10 -274 0 -241 -1
-256 -20 -280 -39 -49 -131 -41 -160 12 -14 27 -13 502 1 534 12 26 55 56 82
57 10 0 31 -7 47 -15z m923 -25 l27 -30 0 -251 0 -251 -34 -34 c-44 -44 -83
-45 -128 -5 l-33 29 0 260 c0 246 1 261 20 282 44 49 103 49 148 0z m-198
-1133 c23 -13 52 -43 70 -71 l30 -49 3 -696 c2 -485 0 -710 -8 -741 -16 -65
-55 -116 -109 -142 l-46 -23 -1206 -3 c-869 -3 -1218 0 -1248 8 -51 13 -105
60 -134 114 l-22 41 0 715 c0 713 0 715 22 755 22 41 62 84 98 103 14 8 376
11 1265 12 l1245 0 40 -23z"/>
<path d="M2700 5581 c-25 -7 -25 -8 -28 -136 -2 -113 0 -131 15 -142 11 -9 55
-13 129 -13 148 0 144 -4 144 150 0 149 0 149 -140 148 -52 0 -106 -3 -120 -7z"/>
<path d="M3169 5569 c-19 -19 -20 -30 -17 -133 2 -77 7 -118 17 -129 11 -14
34 -17 131 -17 152 0 150 -2 150 148 0 151 -1 152 -150 152 -98 0 -112 -2
-131 -21z"/>
<path d="M3662 5574 c-21 -14 -22 -23 -22 -134 0 -154 -4 -150 150 -150 151 0
150 -1 150 152 0 146 -2 148 -148 148 -81 0 -113 -4 -130 -16z"/>
<path d="M4147 5572 c-14 -15 -17 -41 -17 -134 0 -150 -2 -148 153 -148 151 0
147 -4 147 150 0 151 1 150 -156 150 -95 0 -113 -3 -127 -18z"/>
<path d="M4629 5559 c-16 -30 -8 -231 10 -252 11 -14 34 -17 131 -17 153 0
150 -3 150 151 0 76 -4 119 -12 127 -8 8 -54 12 -140 12 -119 0 -128 -1 -139
-21z"/>
<path d="M2688 5089 c-16 -9 -18 -26 -18 -132 0 -82 4 -127 12 -135 17 -17
249 -17 266 0 8 8 12 51 12 129 0 150 0 149 -150 149 -58 0 -113 -5 -122 -11z"/>
<path d="M3166 5079 c-12 -18 -16 -48 -16 -130 0 -141 -2 -139 158 -139 110 0
122 2 132 19 5 11 10 69 10 129 0 90 -3 112 -17 123 -11 10 -53 15 -133 17
-113 4 -118 3 -134 -19z"/>
<path d="M3656 5084 c-13 -12 -16 -39 -16 -125 0 -61 5 -119 10 -130 10 -17
22 -19 134 -19 158 0 156 -2 156 143 0 146 -1 147 -154 147 -91 0 -118 -3
-130 -16z"/>
<path d="M4145 5076 c-13 -19 -16 -48 -14 -128 1 -56 5 -111 11 -120 8 -16 25
-18 138 -18 118 0 130 2 140 19 5 11 10 69 10 130 0 144 3 141 -150 141 -115
0 -120 -1 -135 -24z"/>
<path d="M4640 5080 c-18 -18 -20 -33 -20 -129 0 -145 -4 -141 155 -141 113 0
125 2 135 19 5 11 10 69 10 129 0 143 1 142 -148 142 -99 0 -114 -2 -132 -20z"/>
<path d="M2677 4603 c-13 -12 -8 -248 5 -261 17 -17 249 -17 266 0 17 17 17
239 0 256 -13 13 -259 18 -271 5z"/>
<path d="M3160 4591 c-5 -11 -10 -65 -10 -121 0 -145 -6 -140 150 -140 156 0
150 -5 150 140 0 145 6 140 -150 140 -118 0 -130 -2 -140 -19z"/>
<path d="M3652 4598 c-15 -15 -16 -221 -2 -249 10 -17 22 -19 140 -19 92 0
131 4 137 13 13 21 16 222 4 246 -11 20 -19 21 -139 21 -86 0 -132 -4 -140
-12z"/>
<path d="M4140 4591 c-5 -11 -10 -65 -10 -121 0 -145 -5 -140 148 -140 86 0
132 4 140 12 17 17 17 239 0 256 -8 8 -54 12 -140 12 -116 0 -128 -2 -138 -19z"/>
<path d="M4630 4591 c-5 -11 -10 -67 -10 -125 0 -139 -3 -136 155 -136 113 0
125 2 135 19 14 28 13 234 -2 249 -8 8 -54 12 -140 12 -116 0 -128 -2 -138
-19z"/>
<path d="M8349 6567 c-49 -26 -89 -89 -89 -142 0 -19 30 -90 74 -178 88 -175
158 -379 187 -543 28 -160 36 -404 18 -560 -20 -169 -18 -223 6 -256 23 -32
90 -68 126 -68 45 0 112 42 136 85 49 92 63 514 24 770 -40 267 -103 477 -214
707 -66 135 -87 165 -141 189 -54 24 -74 24 -127 -4z"/>
<path d="M6045 5898 c-3 -7 -6 -528 -7 -1158 l-3 -1145 -26 -66 c-36 -93 -69
-146 -128 -206 -60 -61 -118 -97 -208 -130 l-64 -23 -685 0 c-648 0 -685 -1
-680 -17 15 -49 25 -118 31 -210 l7 -103 929 0 929 0 0 58 c0 207 64 403 183
562 62 83 85 107 166 172 112 90 249 151 395 177 87 16 275 13 361 -4 403 -84
693 -433 713 -857 l5 -108 232 0 c185 0 241 3 278 16 64 22 140 92 174 162
l28 57 3 670 c3 745 5 718 -64 789 -39 40 -89 67 -209 115 -44 18 -128 53
-188 78 l-107 45 -169 271 c-93 150 -231 375 -307 501 -155 255 -192 303 -261
337 l-48 24 -638 3 c-514 2 -638 0 -642 -10z m1237 -370 c27 -36 302 -469 386
-608 28 -47 69 -112 91 -144 22 -33 38 -63 35 -67 -8 -14 -195 -140 -259 -175
l-62 -34 -417 0 c-452 0 -449 0 -524 57 -19 14 -43 44 -53 67 -17 38 -19 73
-19 489 l0 447 399 0 399 0 24 -32z m1250 -1327 l33 -29 3 -140 c6 -228 -8
-242 -249 -242 -132 0 -158 3 -194 20 -65 32 -75 58 -75 203 0 113 2 127 23
158 37 55 54 59 249 59 l178 0 32 -29z"/>
<path d="M3255 3610 c-150 -22 -277 -84 -385 -186 -87 -83 -140 -166 -177
-279 -23 -69 -27 -96 -27 -205 0 -108 4 -136 27 -205 65 -198 226 -359 429
-432 61 -22 95 -27 204 -31 111 -4 142 -1 208 17 306 84 506 340 506 650 0
117 -17 189 -72 301 -32 67 -59 102 -127 171 -73 73 -101 94 -181 132 -135 65
-268 87 -405 67z m160 -311 c124 -23 216 -92 271 -204 32 -64 37 -85 38 -147
2 -174 -106 -318 -277 -370 -166 -50 -348 35 -429 200 -30 60 -33 75 -33 157
0 80 3 97 31 155 52 110 139 181 254 206 71 16 76 16 145 3z"/>
<path d="M3265 3131 c-52 -23 -101 -80 -116 -133 -43 -161 87 -301 248 -268
46 10 65 21 103 60 39 38 50 57 59 101 36 173 -135 312 -294 240z"/>
<path d="M6960 3610 c-153 -19 -283 -83 -396 -195 -65 -65 -90 -98 -122 -166
-58 -120 -75 -199 -70 -339 7 -186 62 -312 198 -450 129 -131 278 -190 480
-190 128 0 230 23 328 75 180 94 303 250 347 439 19 79 19 234 0 315 -9 35
-34 100 -57 145 -56 107 -182 235 -283 288 -127 66 -286 95 -425 78z m175
-315 c119 -32 197 -92 252 -197 25 -48 28 -62 28 -158 0 -99 -2 -109 -32 -166
-55 -106 -161 -183 -280 -205 -190 -35 -394 119 -419 317 -8 65 9 161 38 218
48 94 155 175 258 195 67 13 90 12 155 -4z"/>
<path d="M6975 3135 c-84 -29 -147 -142 -130 -233 18 -101 105 -177 199 -175
152 4 252 131 211 268 -36 120 -161 182 -280 140z"/>
<path d="M1882 3062 c4 -139 14 -161 88 -199 42 -22 56 -23 257 -23 l213 0 0
78 c1 42 7 113 15 157 8 44 15 83 15 87 0 4 -118 7 -262 6 -145 -1 -278 1
-296 6 l-34 8 4 -120z"/>
<path d="M1904 2046 c-40 -40 -43 -69 -14 -127 25 -48 92 -94 161 -108 35 -8
1003 -11 3158 -11 3417 0 3160 -5 3250 61 73 52 90 127 42 181 l-29 33 -3267
3 -3267 2 -34 -34z"/>
</g>
</svg>
