<?xml version="1.0" encoding="UTF-8"?>
<svg width="15px" height="21px" viewBox="0 0 15 21" version="1.1" xmlns="http://www.w3.org/2000/svg" xmlns:xlink="http://www.w3.org/1999/xlink">
    <!-- Generator: Sketch 47 (45396) - http://www.bohemiancoding.com/sketch -->
    <title>Shape</title>
    <desc>Created with Sketch.</desc>
    <defs></defs>
    <g id="Symbols" stroke="none" stroke-width="1" fill="none" fill-rule="evenodd">
        <g id="class" fill-rule="nonzero" fill="#777777">
            <path d="M2.81643853,0.390523905 C1.33895482,0.390523905 0.134271847,1.595202 0.134271847,3.07269059 L0.134271847,17.702698 C0.134271847,19.1801817 1.33895482,20.3848647 2.81643853,20.3848647 L12.0821053,20.3848647 C13.559589,20.3848647 14.764272,19.1801817 14.764272,17.702698 L14.764272,3.07269059 C14.764272,1.595202 13.559589,0.390523905 12.0821053,0.390523905 L2.81643853,0.390523905 Z M2.81643853,1.36585725 L12.0821053,1.36585725 C13.0361276,1.36585725 13.7889386,2.11866829 13.7889386,3.07269059 L13.7889386,17.702698 C13.7889386,18.6567203 13.0361276,19.4095314 12.0821053,19.4095314 L2.81643853,19.4095314 C1.86241623,19.4095314 1.10960519,18.6567203 1.10960519,17.702698 L1.10960519,3.07269059 C1.10960519,2.11866829 1.86241623,1.36585725 2.81643853,1.36585725 Z M3.54793854,2.34119059 C2.74587317,2.34119059 2.08493853,3.00212035 2.08493853,3.8041906 L2.08493853,5.26719061 C2.08493853,6.06926086 2.74587317,6.73019062 3.54793854,6.73019062 L11.3506053,6.73019062 C12.1526706,6.73019062 12.8136053,6.06926086 12.8136053,5.26719061 L12.8136053,3.8041906 C12.8136053,3.00212035 12.1526706,2.34119059 11.3506053,2.34119059 L3.54793854,2.34119059 Z M3.54793854,3.31652393 L11.3506053,3.31652393 C11.6292092,3.31652393 11.8382719,3.52558663 11.8382719,3.8041906 L11.8382719,5.26719061 C11.8382719,5.54579458 11.6292092,5.75485728 11.3506053,5.75485728 L3.54793854,5.75485728 C3.26933457,5.75485728 3.06027187,5.54579458 3.06027187,5.26719061 L3.06027187,3.8041906 C3.06027187,3.52558663 3.26933457,3.31652393 3.54793854,3.31652393 Z M2.5726052,7.70552396 C2.30328549,7.70555089 2.08496546,7.92387092 2.08493853,8.19319063 L2.08493853,10.1438646 C2.08496546,10.4131843 2.30328549,10.6315044 2.5726052,10.6315313 L4.52327188,10.6315313 C4.79259159,10.6315044 5.01091162,10.4131843 5.01093855,10.1438646 L5.01093855,8.19319063 C5.01091162,7.92387092 4.79259159,7.70555089 4.52327188,7.70552396 L2.5726052,7.70552396 L2.5726052,7.70552396 Z M6.47393856,7.70552396 C6.20461885,7.70555089 5.98629882,7.92387092 5.98627189,8.19319063 L5.98627189,10.1438646 C5.98629882,10.4131843 6.20461885,10.6315044 6.47393856,10.6315313 L8.42460524,10.6315313 C8.69392496,10.6315044 8.91224499,10.4131843 8.91227192,10.1438646 L8.91227192,8.19319063 C8.91224499,7.92387092 8.69392496,7.70555089 8.42460524,7.70552396 L6.47393856,7.70552396 L6.47393856,7.70552396 Z M10.3752719,7.70552396 C10.1059522,7.70555089 9.88763218,7.92387092 9.88760526,8.19319063 L9.88760526,10.1438646 C9.88763218,10.4131843 10.1059522,10.6315044 10.3752719,10.6315313 L12.3259386,10.6315313 C12.5952583,10.6315044 12.8135784,10.4131843 12.8136053,10.1438646 L12.8136053,8.19319063 C12.8135784,7.92387092 12.5952583,7.70555089 12.3259386,7.70552396 L10.3752719,7.70552396 L10.3752719,7.70552396 Z M3.06027187,8.6808573 L4.03560521,8.6808573 L4.03560521,9.65619796 L3.06027187,9.65619796 L3.06027187,8.6808573 Z M6.96160523,8.6808573 L7.93693857,8.6808573 L7.93693857,9.65619796 L6.96160523,9.65619796 L6.96160523,8.6808573 Z M10.8629386,8.6808573 L11.8382719,8.6808573 L11.8382719,9.65619796 L10.8629386,9.65619796 L10.8629386,8.6808573 Z M2.5726052,11.6068646 C2.30328549,11.6068916 2.08496546,11.8252116 2.08493853,12.0945313 L2.08493853,14.045198 C2.08496546,14.3145177 2.30328549,14.5328377 2.5726052,14.5328647 L4.52327188,14.5328647 C4.79259159,14.5328377 5.01091162,14.3145177 5.01093855,14.045198 L5.01093855,12.0945313 C5.01091162,11.8252116 4.79259159,11.6068916 4.52327188,11.6068646 L2.5726052,11.6068646 L2.5726052,11.6068646 Z M6.47393856,11.6068646 C6.20461885,11.6068916 5.98629882,11.8252116 5.98627189,12.0945313 L5.98627189,14.045198 C5.98629882,14.3145177 6.20461885,14.5328377 6.47393856,14.5328647 L8.42460524,14.5328647 C8.69392496,14.5328377 8.91224499,14.3145177 8.91227192,14.045198 L8.91227192,12.0945313 C8.91224499,11.8252116 8.69392496,11.6068916 8.42460524,11.6068646 L6.47393856,11.6068646 L6.47393856,11.6068646 Z M10.3752719,11.6068646 C10.1059522,11.6068916 9.88763218,11.8252116 9.88760526,12.0945313 L9.88760526,17.9465314 C9.88763218,18.2158511 10.1059522,18.4341711 10.3752719,18.434198 L12.3259386,18.434198 C12.5952583,18.4341711 12.8135784,18.2158511 12.8136053,17.9465314 L12.8136053,12.0945313 C12.8135784,11.8252116 12.5952583,11.6068916 12.3259386,11.6068646 L10.3752719,11.6068646 L10.3752719,11.6068646 Z M3.06027187,12.582198 L4.03560521,12.582198 L4.03560521,13.5575313 L3.06027187,13.5575313 L3.06027187,12.582198 Z M6.96160523,12.582198 L7.93693857,12.582198 L7.93693857,13.5575313 L6.96160523,13.5575313 L6.96160523,12.582198 Z M10.8629386,12.582198 L11.8382719,12.582198 L11.8382719,17.4588647 L10.8629386,17.4588647 L10.8629386,12.582198 Z M2.5726052,15.508198 C2.30328549,15.5082249 2.08496546,15.726545 2.08493853,15.9958647 L2.08493853,17.9465314 C2.08496546,18.2158511 2.30328549,18.4341711 2.5726052,18.434198 L4.52327188,18.434198 C4.79259159,18.4341711 5.01091162,18.2158511 5.01093855,17.9465314 L5.01093855,15.9958647 C5.01091162,15.726545 4.79259159,15.5082249 4.52327188,15.508198 L2.5726052,15.508198 L2.5726052,15.508198 Z M6.47393856,15.508198 C6.20461885,15.5082249 5.98629882,15.726545 5.98627189,15.9958647 L5.98627189,17.9465314 C5.98629882,18.2158511 6.20461885,18.4341711 6.47393856,18.434198 L8.42460524,18.434198 C8.69392496,18.4341711 8.91224499,18.2158511 8.91227192,17.9465314 L8.91227192,15.9958647 C8.91224499,15.726545 8.69392496,15.5082249 8.42460524,15.508198 L6.47393856,15.508198 L6.47393856,15.508198 Z M3.06027187,16.4835313 L4.03560521,16.4835313 L4.03560521,17.4588647 L3.06027187,17.4588647 L3.06027187,16.4835313 Z M6.96160523,16.4835313 L7.93693857,16.4835313 L7.93693857,17.4588647 L6.96160523,17.4588647 L6.96160523,16.4835313 Z" id="Shape"></path>
        </g>
    </g>
</svg>