<?xml version="1.0" encoding="UTF-8"?>
<svg width="21px" height="21px" viewBox="0 0 21 21" version="1.1" xmlns="http://www.w3.org/2000/svg" xmlns:xlink="http://www.w3.org/1999/xlink">
    <!-- Generator: Sketch 47 (45396) - http://www.bohemiancoding.com/sketch -->
    <title>Shape</title>
    <desc>Created with Sketch.</desc>
    <defs></defs>
    <g id="Symbols" stroke="none" stroke-width="1" fill="none" fill-rule="evenodd">
        <g id="ruler" fill-rule="nonzero" fill="#777777">
            <path d="M20.1001077,5.8256304 L14.8089378,0.534460502 C14.5196013,0.245123954 14.0509294,0.245123954 13.7615928,0.534460502 L0.53411253,13.7619408 C0.244775982,14.0512774 0.244775982,14.5199492 0.53411253,14.8092858 L5.82528243,20.1006779 C6.11439676,20.3900145 6.5837353,20.3900145 6.87284963,20.1006779 L20.1001077,6.87297537 C20.3894443,6.58386105 20.3894443,6.11474473 20.1001077,5.8256304 Z M6.34906603,18.5293271 L2.10546332,14.2855022 L3.26236507,13.1283782 L5.38483309,15.2508462 C5.67394742,15.540405 6.14328597,15.540405 6.43240029,15.2508462 C6.72173684,14.9615097 6.72173684,14.4928378 6.43240029,14.2035013 L4.30993226,12.0810332 L5.46705623,10.9243537 L6.26662067,11.7241404 C6.55573499,12.0130325 7.02485132,12.0130325 7.31418786,11.7241404 C7.60352441,11.4345816 7.60352441,10.9659097 7.31441009,10.6765732 L6.51462342,9.8765643 L7.67196962,8.71944033 L9.7939932,10.8414639 C10.0828853,11.1308005 10.5524461,11.1308005 10.8413382,10.8414639 C11.1306747,10.5523496 11.1306747,10.0832333 10.8413382,9.79411894 L8.71931459,7.67209536 L9.87643856,6.5149714 L10.6757808,7.31431361 C10.9646729,7.60365016 11.4342336,7.60365016 11.7231257,7.31431361 C12.0126845,7.02519929 12.0126845,6.55608296 11.7231257,6.26696864 L10.9237835,5.46762643 L12.0809075,4.31028023 L14.2033755,6.43274826 C14.4927121,6.72208481 14.9613839,6.72208481 15.2507205,6.43274826 C15.5402793,6.14363394 15.5402793,5.67429539 15.2507205,5.38518107 L13.1282525,3.26271304 L14.2853764,2.10581129 L18.5292014,6.349414 L6.34906603,18.5293271 Z" id="Shape"></path>
        </g>
    </g>
</svg>