<?xml version="1.0" encoding="UTF-8"?>
<svg width="26px" height="26px" viewBox="0 0 26 26" version="1.1" xmlns="http://www.w3.org/2000/svg" xmlns:xlink="http://www.w3.org/1999/xlink">
    <!-- Generator: Sketch 50.2 (55047) - http://www.bohemiancoding.com/sketch -->
    <title>Hub/Icon/Truck</title>
    <desc>Created with Sketch.</desc>
    <defs></defs>
    <g id="Symbols" stroke="none" stroke-width="1" fill="none" fill-rule="evenodd">
        <g id="Accounting/Charge-Details/Task-Header" transform="translate(-23.000000, -21.000000)" fill="#979797">
            <g id="Hub/Icon/InvoiceException">
                <g transform="translate(21.000000, 19.000000)">
                    <g id="Group" transform="translate(2.245748, 2.245748)">
                        <path d="M22.3199403,0 C20.5584881,0 19.1313774,1.42711068 19.1313774,3.1885629 L19.1313774,7.4399801 C19.1313774,8.02697832 19.6072335,8.5028344 20.1942317,8.5028344 L24.4456489,8.5028344 C25.0326471,8.5028344 25.5085032,8.02697832 25.5085032,7.4399801 L25.5085032,3.1885629 C25.5085032,1.42711068 24.0813925,0 22.3199403,0 Z M23.3827946,6.3771258 L21.257086,6.3771258 L21.257086,3.1885629 C21.257086,2.60110712 21.7324845,2.1257086 22.3199403,2.1257086 C22.9073961,2.1257086 23.3827946,2.60110712 23.3827946,3.1885629 L23.3827946,6.3771258 Z" id="Shape" fill-rule="nonzero"></path>
                        <path d="M22.3199403,0 C20.5584881,0 19.1313774,1.42711068 19.1313774,3.1885629 L19.1313774,7.4399801 C19.1313774,8.02697832 19.6072335,8.5028344 20.1942317,8.5028344 L24.4456489,8.5028344 C25.0326471,8.5028344 25.5085032,8.02697832 25.5085032,7.4399801 L25.5085032,3.1885629 C25.5085032,1.42711068 24.0813925,0 22.3199403,0 Z M23.3827946,6.3771258 L21.257086,6.3771258 L21.257086,3.1885629 C21.257086,2.60110712 21.7324845,2.1257086 22.3199403,2.1257086 C22.9073961,2.1257086 23.3827946,2.60110712 23.3827946,3.1885629 L23.3827946,6.3771258 Z" id="Shape" fill-rule="nonzero"></path>
                        <path d="M14.8799602,22.3199403 C14.8799602,24.0813925 16.3070709,25.5085032 18.0685231,25.5085032 C19.8299753,25.5085032 21.257086,24.0813925 21.257086,22.3199403 L21.257086,3.1885629 C21.257086,2.60110712 21.7324845,2.1257086 22.3199403,2.1257086 L22.3199403,0 L7.44529437,0 C5.68065359,0 4.2514172,1.42923639 4.2514172,3.19387717 L4.2514172,19.1313774 C4.2514172,19.7183756 4.72727328,20.1942317 5.3142715,20.1942317 L14.8799602,20.1942317 L14.8799602,22.3199403 Z M19.1313774,3.1885629 L19.1313774,22.3199403 C19.1313774,22.9073961 18.6559789,23.3827946 18.0685231,23.3827946 C17.4810673,23.3827946 17.0056688,22.9073961 17.0056688,22.3199403 L17.0056688,19.1313774 C17.0056688,18.5443792 16.5298127,18.0685231 15.9428145,18.0685231 L6.3771258,18.0685231 L6.3771258,3.19387717 C6.3771258,2.60323283 6.85465003,2.1257086 7.44529437,2.1257086 L19.3127005,2.1257086 C19.195269,2.45812388 19.1313774,2.81585918 19.1313774,3.1885629 Z" id="Shape" fill-rule="nonzero"></path>
                        <path d="M17.0056688,22.3199403 L17.0056688,19.134566 C17.0056688,18.5476567 16.5299515,18.0718375 15.9430423,18.0717117 L1.06308206,18.0685231 C0.475994901,18.0683974 0,18.5442903 0,19.1313774 L0,22.4294143 C0,24.1302838 1.37821938,25.5085032 3.07908891,25.5085032 L18.0685231,25.5085032 L18.0685231,23.3827946 C17.4810673,23.3827946 17.0056688,22.9073961 17.0056688,22.3199403 Z M3.07908891,23.3827946 C2.55221582,23.3827946 2.1257086,22.9562874 2.1257086,22.4294143 L2.1257086,20.1944595 L14.8799602,20.1971925 L14.8799602,22.3199403 C14.8799602,22.692644 14.9438518,23.0503793 15.0612833,23.3827946 L3.07908891,23.3827946 Z" id="Shape" fill-rule="nonzero"></path>
                        <path d="M18.0685231,25.5085032 L18.3980079,25.5085032 L18.3980079,23.3827946 C18.4355625,23.3827946 18.4473066,23.3840224 18.446915,23.3839674 C18.4031034,23.3776316 18.4031034,23.3776316 18.3147827,23.3689196 L18.1517483,23.3689196 C18.0634277,23.3776316 18.0634277,23.3776316 18.0196161,23.3839674 C18.0192244,23.3840224 18.0309685,23.3827946 18.0685231,23.3827946 L18.0685231,25.5085032 Z M18.3980079,25.5085032 C19.815147,25.5085032 19.815147,23.3827946 18.3980079,23.3827946 L18.0685231,23.3827946 C16.6513841,23.3827946 16.6513841,25.5085032 18.0685231,25.5085032 C18.13278,25.5085032 18.1791316,25.5057773 18.2332655,25.4996583 C18.2873995,25.5057773 18.3337511,25.5085032 18.3980079,25.5085032 Z" id="Shape" fill-rule="nonzero"></path>
                        <path d="M12.227119,12.3478871 L11.4010474,7.75427663 L11.4010474,4.2514172 L14.7503921,4.2514172 L14.7503921,7.75427663 L13.969379,12.3478871 L12.227119,12.3478871 Z M13.0757197,16.2514172 C12.2472926,16.2514172 11.5757197,15.5798443 11.5757197,14.7514172 C11.5757197,13.9229901 12.2472926,13.2514172 13.0757197,13.2514172 C13.9041469,13.2514172 14.5757197,13.9229901 14.5757197,14.7514172 C14.5757197,15.5798443 13.9041469,16.2514172 13.0757197,16.2514172 Z" id="!"></path>
                    </g>
                </g>
            </g>
        </g>
    </g>
</svg>
