<svg id="Layer_1" xmlns="http://www.w3.org/2000/svg" viewBox="0 0 20 20"><style>.st0{fill:#fff}.st1{fill:#075895}</style><path class="st0" d="M2.7 16.4V3.8h9l.1 9.7-3 3.1H3.1zM14.7 14.6l-.1-10.2.6-.7h1.4l.7.1.2 1.9v8.7l-1.3 2.5z"/><g id="Group" transform="translate(2 3)"><path id="Shape" class="st1" d="M1.5 14.2h5.6l.1-.1 3.3-3.4.1-.1v-9C10.6.8 9.9.1 9.1.1H1.5C.7.1 0 .8 0 1.6v11.1c0 .8.7 1.5 1.5 1.5zm5.8-1.9V11h1.3l-1.3 1.3zM1.1 1.6c0-.2.2-.4.4-.4h7.6c.2 0 .4.2.4.4v8.2H6.7c-.2 0-.3.1-.4.2-.1.1-.2.3-.2.4v2.7H1.5c-.2 0-.4-.2-.4-.4V1.6z"/><g id="Group-2" transform="translate(1.388 2.476)"><path id="Path-Copy" class="st1" d="M3.3 2.2h2.9c.3 0 .6-.3.6-.6S6.6 1 6.2 1H3.3c-.3 0-.5.3-.5.6s.2.6.5.6z"/><path id="Shape-Copy-2" class="st1" d="M2 1c-.4-.2-.8 0-1 .3s0 .7.3.9c.1.1.2.1.3.1.2 0 .5-.1.6-.3.2-.4.1-.8-.2-1z"/></g><g id="Group-2-Copy"><path class="st1" d="M3.3 2.2h2.9c.3 0 .6-.3.6-.6S6.6 1 6.2 1H3.3c-.3 0-.5.3-.5.6s.2.6.5.6zM2 1c-.4-.2-.8 0-1 .3s0 .7.3.9c.1.1.2.1.3.1.2 0 .5-.1.6-.3.2-.4.1-.8-.2-1z" transform="translate(1.388 5.385)"/></g><path class="st1" d="M13.5 14.2c.1.2.3.3.5.3s.4-.1.5-.3l1.4-2.5c0-.1.1-.2.1-.3V1.5c0-.8-.7-1.5-1.6-1.5h-.8c-.8 0-1.5.7-1.5 1.5v9.9c0 .1 0 .2.1.3l1.3 2.5zm1.3-3.5h-1.6V2.9h1.6v7.8zm-.8 2l-.5-.9h.9l-.4.9zm-.4-11.6h.8c.2 0 .4.2.4.4v.2h-1.6v-.2c.1-.2.2-.4.4-.4z"/></g></svg>