<svg id="Layer_1" xmlns="http://www.w3.org/2000/svg" viewBox="0 0 20 20"><style>.st0{fill:#fff}.st1{fill:#075895}</style><path class="st0" d="M1.5 4.8H15V15H1.5z"/><circle class="st0" cx="15" cy="15" r="3.4"/><g id="Group" transform="translate(1 1)"><path id="Shape" class="st1" d="M14 10c-2.2 0-4 1.8-4 4s1.8 4 4 4 4-1.8 4-4-1.8-4-4-4zm0 7c-1.6 0-3-1.3-3-3 0-1.6 1.3-3 3-3 1.6 0 3 1.3 3 3-.1 1.7-1.4 3-3 3z"/><path class="st1" d="M11.7 5.6h-9c-.3 0-.6.1-.6.4v6c0 .3.3.6.6.6h6c.3 0 .5-.3.5-.6V9.6h2.5c.3 0 .5-.2.5-.5V6c.1-.3-.2-.4-.5-.4zm-6.5 5.9H3.3V9.6h1.9v1.9zm0-2.9H3.3V6.7h1.9v1.9zm3 2.9H6.1V9.6h2.1v1.9zm0-2.9H6.1V6.7h2.1v1.9zm2.9 0H9.2V6.7h1.9v1.9z"/><path class="st1" d="M14.6 2v6.4c0 .3-.3.5-.6.5s-.6-.2-.6-.5v-4H1v9.1h7.6c.3 0 .5.2.5.5s-.2.5-.5.5H.5c-.3 0-.5-.2-.5-.5V2c0-.3.1-.5.4-.5h1.9V.6c0-.3.3-.5.6-.5s.6.2.6.5v.9h7.3V.6c0-.3.3-.5.6-.5s.6.2.6.5v.9h2c.3 0 .6.2.6.5zM15.6 15.2c-.1.1-.3.2-.4.2-.1 0-.2 0-.3-.1l-1.2-.8c-.1-.1-.2-.3-.2-.4v-1.5c0-.3.2-.5.5-.5s.5.2.5.5v1.3l.9.7c.3.1.3.4.2.6z"/></g></svg>