<svg id="Layer_1" xmlns="http://www.w3.org/2000/svg" viewBox="0 0 20 20"><style>.st1{fill:#075895}</style><path fill="#fff" d="M9.6 17.3l-4.5-10 .8-3 2.9-2.1 2.5.2 1.8.7 1.3 1.8v4.6l-3.7 7.6-.5.9z"/><g id="Location-Icon" transform="translate(4.5 1.5)"><circle id="Oval" class="st1" cx="5.5" cy="5.5" r="1.5"/><path id="Shape" class="st1" d="M5.5 0C2.5 0 0 2.4 0 5.5c0 2.8 4.4 10.4 4.9 11.2.1.2.3.3.6.3s.5-.1.6-.3c.5-.9 4.9-8.5 4.9-11.2C11 2.4 8.5 0 5.5 0zm0 15C4 12.2 1.4 7.2 1.4 5.5c0-2.3 1.9-4.1 4.1-4.1s4.1 1.9 4.1 4.1c0 1.7-2.6 6.7-4.1 9.5z"/></g></svg>