<svg width="20" height="20" xmlns="http://www.w3.org/2000/svg"><g fill="none"><path d="M10 1.5c-2.995 0-5.5 2.444-5.5 5.472 0 2.762 4.41 10.36 4.901 11.21.109.212.327.318.599.318s.49-.106.599-.319c.49-.85 4.901-8.5 4.901-11.21C15.5 3.945 12.995 1.5 10 1.5z" fill="#CFE9FF"/><circle fill="#075895" cx="10" cy="7" r="1.5"/><path d="M10 1.5c-2.995 0-5.5 2.444-5.5 5.472 0 2.762 4.41 10.36 4.901 11.21.109.212.327.318.599.318s.49-.106.599-.319c.49-.85 4.901-8.5 4.901-11.21C15.5 3.945 12.995 1.5 10 1.5zm0 14.981c-1.525-2.762-4.139-7.756-4.139-9.51A4.143 4.143 0 0 1 10 2.829a4.143 4.143 0 0 1 4.139 4.144c0 1.753-2.614 6.747-4.139 9.51z" fill="#075895"/></g></svg>